<?xml version="1.0" encoding="UTF-8" standalone="no"?>
<!DOCTYPE svg PUBLIC "-//W3C//DTD SVG 1.1//EN"
 "http://www.w3.org/Graphics/SVG/1.1/DTD/svg11.dtd">
<!-- Generated by graphviz version 2.47.0 (20210316.0004)
 -->
<!-- Title: dependencies Pages: 1 -->
<svg width="504pt" height="284pt"
 viewBox="0.00 0.00 504.00 284.00" xmlns="http://www.w3.org/2000/svg" xmlns:xlink="http://www.w3.org/1999/xlink">
<g id="graph0" class="graph" transform="scale(1 1) rotate(0) translate(4 280)">
<title>dependencies</title>
<polygon fill="white" stroke="transparent" points="-4,4 -4,-280 500,-280 500,4 -4,4"/>
<text text-anchor="start" x="227.01" y="-42.4" font-family="Times-12" font-weight="bold" font-size="14.00">Legend</text>
<polygon fill="#ffffb3" stroke="transparent" points="14,-10 14,-30 34,-30 34,-10 14,-10"/>
<text text-anchor="start" x="37.63" y="-15.4" font-family="Times-12" font-size="14.00"> &#160;Declarations</text>
<polygon fill="#8dd3c7" stroke="transparent" points="127,-10 127,-30 147,-30 147,-10 127,-10"/>
<text text-anchor="start" x="150.73" y="-15.4" font-family="Times-12" font-size="14.00"> &#160;Module</text>
<polygon fill="#80b1d3" stroke="transparent" points="213,-10 213,-30 233,-30 233,-10 213,-10"/>
<text text-anchor="start" x="236.78" y="-15.4" font-family="Times-12" font-size="14.00"> &#160;Bootstrap</text>
<polygon fill="#fdb462" stroke="transparent" points="310,-10 310,-30 330,-30 330,-10 310,-10"/>
<text text-anchor="start" x="333.67" y="-15.4" font-family="Times-12" font-size="14.00"> &#160;Providers</text>
<polygon fill="#fb8072" stroke="transparent" points="406,-10 406,-30 426,-30 426,-10 406,-10"/>
<text text-anchor="start" x="429.73" y="-15.4" font-family="Times-12" font-size="14.00"> &#160;Exports</text>
<g id="clust1" class="cluster">
<title>cluster_ReviewAttributesModule</title>
<polygon fill="none" stroke="black" stroke-dasharray="1,5" points="63,-70 63,-268 433,-268 433,-70 63,-70"/>
</g>
<g id="clust6" class="cluster">
<title>cluster_ReviewAttributesModule_providers</title>
<polygon fill="none" stroke="black" points="193,-78 193,-130 425,-130 425,-78 193,-78"/>
</g>
<g id="clust4" class="cluster">
<title>cluster_ReviewAttributesModule_exports</title>
<polygon fill="none" stroke="black" points="146,-208 146,-260 322,-260 322,-208 146,-208"/>
</g>
<g id="clust3" class="cluster">
<title>cluster_ReviewAttributesModule_imports</title>
<polygon fill="none" stroke="black" points="71,-78 71,-130 185,-130 185,-78 71,-78"/>
</g>
<!-- PrismaModule -->
<g id="node1" class="node">
<title>PrismaModule</title>
<polygon fill="#8dd3c7" stroke="black" points="177.43,-122 174.43,-126 153.43,-126 150.43,-122 78.57,-122 78.57,-86 177.43,-86 177.43,-122"/>
<text text-anchor="middle" x="128" y="-99.8" font-family="Times,serif" font-size="14.00">PrismaModule</text>
</g>
<!-- ReviewAttributesModule -->
<g id="node2" class="node">
<title>ReviewAttributesModule</title>
<polygon fill="#8dd3c7" stroke="black" points="313.3,-187 310.3,-191 289.3,-191 286.3,-187 154.7,-187 154.7,-151 313.3,-151 313.3,-187"/>
<text text-anchor="middle" x="234" y="-164.8" font-family="Times,serif" font-size="14.00">ReviewAttributesModule</text>
</g>
<!-- PrismaModule&#45;&gt;ReviewAttributesModule -->
<g id="edge1" class="edge">
<title>PrismaModule&#45;&gt;ReviewAttributesModule</title>
<path fill="none" stroke="black" d="M166.03,-122.11C166.03,-122.11 166.03,-140.99 166.03,-140.99"/>
<polygon fill="black" stroke="black" points="162.53,-140.99 166.03,-150.99 169.53,-140.99 162.53,-140.99"/>
</g>
<!-- ReviewAttributesService  -->
<g id="node3" class="node">
<title>ReviewAttributesService </title>
<polygon fill="#fb8072" stroke="black" points="314.23,-252 153.77,-252 153.77,-216 314.23,-216 314.23,-252"/>
<text text-anchor="middle" x="234" y="-229.8" font-family="Times,serif" font-size="14.00">ReviewAttributesService </text>
</g>
<!-- ReviewAttributesModule&#45;&gt;ReviewAttributesService  -->
<g id="edge2" class="edge">
<title>ReviewAttributesModule&#45;&gt;ReviewAttributesService </title>
<path fill="none" stroke="black" stroke-dasharray="5,2" d="M234,-187.11C234,-187.11 234,-205.99 234,-205.99"/>
<polygon fill="black" stroke="black" points="230.5,-205.99 234,-215.99 237.5,-205.99 230.5,-205.99"/>
</g>
<!-- ReviewAttributesService -->
<g id="node4" class="node">
<title>ReviewAttributesService</title>
<ellipse fill="#fdb462" stroke="black" cx="309" cy="-104" rx="108.22" ry="18"/>
<text text-anchor="middle" x="309" y="-99.8" font-family="Times,serif" font-size="14.00">ReviewAttributesService</text>
</g>
<!-- ReviewAttributesService&#45;&gt;ReviewAttributesModule -->
<g id="edge3" class="edge">
<title>ReviewAttributesService&#45;&gt;ReviewAttributesModule</title>
<path fill="none" stroke="black" d="M257.02,-120.07C257.02,-120.07 257.02,-140.82 257.02,-140.82"/>
<polygon fill="black" stroke="black" points="253.52,-140.82 257.02,-150.82 260.52,-140.82 253.52,-140.82"/>
</g>
</g>
</svg>
