<?xml version="1.0" encoding="UTF-8" standalone="no"?>
<!DOCTYPE svg PUBLIC "-//W3C//DTD SVG 1.1//EN"
 "http://www.w3.org/Graphics/SVG/1.1/DTD/svg11.dtd">
<!-- Generated by graphviz version 2.47.0 (20210316.0004)
 -->
<!-- Title: dependencies Pages: 1 -->
<svg width="1563pt" height="284pt"
 viewBox="0.00 0.00 1563.00 284.00" xmlns="http://www.w3.org/2000/svg" xmlns:xlink="http://www.w3.org/1999/xlink">
<g id="graph0" class="graph" transform="scale(1 1) rotate(0) translate(4 280)">
<title>dependencies</title>
<polygon fill="white" stroke="transparent" points="-4,4 -4,-280 1559,-280 1559,4 -4,4"/>
<text text-anchor="start" x="756.51" y="-42.4" font-family="Times-12" font-weight="bold" font-size="14.00">Legend</text>
<polygon fill="#ffffb3" stroke="transparent" points="543.5,-10 543.5,-30 563.5,-30 563.5,-10 543.5,-10"/>
<text text-anchor="start" x="567.13" y="-15.4" font-family="Times-12" font-size="14.00"> &#160;Declarations</text>
<polygon fill="#8dd3c7" stroke="transparent" points="656.5,-10 656.5,-30 676.5,-30 676.5,-10 656.5,-10"/>
<text text-anchor="start" x="680.23" y="-15.4" font-family="Times-12" font-size="14.00"> &#160;Module</text>
<polygon fill="#80b1d3" stroke="transparent" points="742.5,-10 742.5,-30 762.5,-30 762.5,-10 742.5,-10"/>
<text text-anchor="start" x="766.28" y="-15.4" font-family="Times-12" font-size="14.00"> &#160;Bootstrap</text>
<polygon fill="#fdb462" stroke="transparent" points="839.5,-10 839.5,-30 859.5,-30 859.5,-10 839.5,-10"/>
<text text-anchor="start" x="863.17" y="-15.4" font-family="Times-12" font-size="14.00"> &#160;Providers</text>
<polygon fill="#fb8072" stroke="transparent" points="935.5,-10 935.5,-30 955.5,-30 955.5,-10 935.5,-10"/>
<text text-anchor="start" x="959.23" y="-15.4" font-family="Times-12" font-size="14.00"> &#160;Exports</text>
<g id="clust1" class="cluster">
<title>cluster_SharedModule</title>
<polygon fill="none" stroke="black" stroke-dasharray="1,5" points="8,-70 8,-268 1547,-268 1547,-70 8,-70"/>
</g>
<g id="clust4" class="cluster">
<title>cluster_SharedModule_exports</title>
<polygon fill="none" stroke="black" points="347,-208 347,-260 1345,-260 1345,-208 347,-208"/>
</g>
<g id="clust3" class="cluster">
<title>cluster_SharedModule_imports</title>
<polygon fill="none" stroke="black" points="1309,-78 1309,-130 1539,-130 1539,-78 1309,-78"/>
</g>
<g id="clust6" class="cluster">
<title>cluster_SharedModule_providers</title>
<polygon fill="none" stroke="black" points="16,-78 16,-130 1301,-130 1301,-78 16,-78"/>
</g>
<!-- ConfigModule -->
<g id="node1" class="node">
<title>ConfigModule</title>
<polygon fill="#8dd3c7" stroke="black" points="1531.44,-122 1528.44,-126 1507.44,-126 1504.44,-122 1432.56,-122 1432.56,-86 1531.44,-86 1531.44,-122"/>
<text text-anchor="middle" x="1482" y="-99.8" font-family="Times,serif" font-size="14.00">ConfigModule</text>
</g>
<!-- SharedModule -->
<g id="node3" class="node">
<title>SharedModule</title>
<polygon fill="#8dd3c7" stroke="black" points="886.42,-187 883.42,-191 862.42,-191 859.42,-187 787.58,-187 787.58,-151 886.42,-151 886.42,-187"/>
<text text-anchor="middle" x="837" y="-164.8" font-family="Times,serif" font-size="14.00">SharedModule</text>
</g>
<!-- ConfigModule&#45;&gt;SharedModule -->
<g id="edge1" class="edge">
<title>ConfigModule&#45;&gt;SharedModule</title>
<path fill="none" stroke="black" d="M1482,-122.11C1482,-141.34 1482,-169 1482,-169 1482,-169 896.27,-169 896.27,-169"/>
<polygon fill="black" stroke="black" points="896.27,-165.5 886.27,-169 896.27,-172.5 896.27,-165.5"/>
</g>
<!-- PrismaModule -->
<g id="node2" class="node">
<title>PrismaModule</title>
<polygon fill="#8dd3c7" stroke="black" points="1415.43,-122 1412.43,-126 1391.43,-126 1388.43,-122 1316.57,-122 1316.57,-86 1415.43,-86 1415.43,-122"/>
<text text-anchor="middle" x="1366" y="-99.8" font-family="Times,serif" font-size="14.00">PrismaModule</text>
</g>
<!-- PrismaModule&#45;&gt;SharedModule -->
<g id="edge2" class="edge">
<title>PrismaModule&#45;&gt;SharedModule</title>
<path fill="none" stroke="black" d="M1327.12,-122.3C1327.12,-140.27 1327.12,-165 1327.12,-165 1327.12,-165 896.24,-165 896.24,-165"/>
<polygon fill="black" stroke="black" points="896.24,-161.5 886.24,-165 896.24,-168.5 896.24,-161.5"/>
</g>
<!-- EmailService  -->
<g id="node4" class="node">
<title>EmailService </title>
<polygon fill="#fb8072" stroke="black" points="1337.42,-252 1242.58,-252 1242.58,-216 1337.42,-216 1337.42,-252"/>
<text text-anchor="middle" x="1290" y="-229.8" font-family="Times,serif" font-size="14.00">EmailService </text>
</g>
<!-- SharedModule&#45;&gt;EmailService  -->
<g id="edge3" class="edge">
<title>SharedModule&#45;&gt;EmailService </title>
<path fill="none" stroke="black" stroke-dasharray="5,2" d="M886.42,-174C999.58,-174 1267.8,-174 1267.8,-174 1267.8,-174 1267.8,-206 1267.8,-206"/>
<polygon fill="black" stroke="black" points="1264.3,-206 1267.8,-216 1271.3,-206 1264.3,-206"/>
</g>
<!-- FcmService  -->
<g id="node5" class="node">
<title>FcmService </title>
<polygon fill="#fb8072" stroke="black" points="1224.37,-252 1137.63,-252 1137.63,-216 1224.37,-216 1224.37,-252"/>
<text text-anchor="middle" x="1181" y="-229.8" font-family="Times,serif" font-size="14.00">FcmService </text>
</g>
<!-- SharedModule&#45;&gt;FcmService  -->
<g id="edge4" class="edge">
<title>SharedModule&#45;&gt;FcmService </title>
<path fill="none" stroke="black" stroke-dasharray="5,2" d="M886.24,-178C972.88,-178 1143.49,-178 1143.49,-178 1143.49,-178 1143.49,-205.97 1143.49,-205.97"/>
<polygon fill="black" stroke="black" points="1139.99,-205.97 1143.49,-215.97 1146.99,-205.97 1139.99,-205.97"/>
</g>
<!-- FileStorageService  -->
<g id="node6" class="node">
<title>FileStorageService </title>
<polygon fill="#fb8072" stroke="black" points="1120.02,-252 993.98,-252 993.98,-216 1120.02,-216 1120.02,-252"/>
<text text-anchor="middle" x="1057" y="-229.8" font-family="Times,serif" font-size="14.00">FileStorageService </text>
</g>
<!-- SharedModule&#45;&gt;FileStorageService  -->
<g id="edge5" class="edge">
<title>SharedModule&#45;&gt;FileStorageService </title>
<path fill="none" stroke="black" stroke-dasharray="5,2" d="M886.57,-183C936.2,-183 1005.25,-183 1005.25,-183 1005.25,-183 1005.25,-205.88 1005.25,-205.88"/>
<polygon fill="black" stroke="black" points="1001.75,-205.88 1005.25,-215.88 1008.75,-205.88 1001.75,-205.88"/>
</g>
<!-- GeolocationService  -->
<g id="node7" class="node">
<title>GeolocationService </title>
<polygon fill="#fb8072" stroke="black" points="975.9,-252 846.1,-252 846.1,-216 975.9,-216 975.9,-252"/>
<text text-anchor="middle" x="911" y="-229.8" font-family="Times,serif" font-size="14.00">GeolocationService </text>
</g>
<!-- SharedModule&#45;&gt;GeolocationService  -->
<g id="edge6" class="edge">
<title>SharedModule&#45;&gt;GeolocationService </title>
<path fill="none" stroke="black" stroke-dasharray="5,2" d="M866.13,-187.11C866.13,-187.11 866.13,-205.99 866.13,-205.99"/>
<polygon fill="black" stroke="black" points="862.63,-205.99 866.13,-215.99 869.63,-205.99 862.63,-205.99"/>
</g>
<!-- NotificationService  -->
<g id="node8" class="node">
<title>NotificationService </title>
<polygon fill="#fb8072" stroke="black" points="827.63,-252 698.37,-252 698.37,-216 827.63,-216 827.63,-252"/>
<text text-anchor="middle" x="763" y="-229.8" font-family="Times,serif" font-size="14.00">NotificationService </text>
</g>
<!-- SharedModule&#45;&gt;NotificationService  -->
<g id="edge7" class="edge">
<title>SharedModule&#45;&gt;NotificationService </title>
<path fill="none" stroke="black" stroke-dasharray="5,2" d="M807.68,-187.11C807.68,-187.11 807.68,-205.99 807.68,-205.99"/>
<polygon fill="black" stroke="black" points="804.18,-205.99 807.68,-215.99 811.18,-205.99 804.18,-205.99"/>
</g>
<!-- PaymentService  -->
<g id="node9" class="node">
<title>PaymentService </title>
<polygon fill="#fb8072" stroke="black" points="680.47,-252 569.53,-252 569.53,-216 680.47,-216 680.47,-252"/>
<text text-anchor="middle" x="625" y="-229.8" font-family="Times,serif" font-size="14.00">PaymentService </text>
</g>
<!-- SharedModule&#45;&gt;PaymentService  -->
<g id="edge8" class="edge">
<title>SharedModule&#45;&gt;PaymentService </title>
<path fill="none" stroke="black" stroke-dasharray="5,2" d="M787.52,-183C737.5,-183 667.52,-183 667.52,-183 667.52,-183 667.52,-205.88 667.52,-205.88"/>
<polygon fill="black" stroke="black" points="664.02,-205.88 667.52,-215.88 671.02,-205.88 664.02,-205.88"/>
</g>
<!-- RedisService  -->
<g id="node10" class="node">
<title>RedisService </title>
<polygon fill="#fb8072" stroke="black" points="551.86,-252 458.14,-252 458.14,-216 551.86,-216 551.86,-252"/>
<text text-anchor="middle" x="505" y="-229.8" font-family="Times,serif" font-size="14.00">RedisService </text>
</g>
<!-- SharedModule&#45;&gt;RedisService  -->
<g id="edge9" class="edge">
<title>SharedModule&#45;&gt;RedisService </title>
<path fill="none" stroke="black" stroke-dasharray="5,2" d="M787.67,-178C695.76,-178 507.51,-178 507.51,-178 507.51,-178 507.51,-205.97 507.51,-205.97"/>
<polygon fill="black" stroke="black" points="504.01,-205.97 507.51,-215.97 511.01,-205.97 504.01,-205.97"/>
</g>
<!-- SmsService  -->
<g id="node11" class="node">
<title>SmsService </title>
<polygon fill="#fb8072" stroke="black" points="440.6,-252 355.4,-252 355.4,-216 440.6,-216 440.6,-252"/>
<text text-anchor="middle" x="398" y="-229.8" font-family="Times,serif" font-size="14.00">SmsService </text>
</g>
<!-- SharedModule&#45;&gt;SmsService  -->
<g id="edge10" class="edge">
<title>SharedModule&#45;&gt;SmsService </title>
<path fill="none" stroke="black" stroke-dasharray="5,2" d="M787.45,-174C675.41,-174 412.27,-174 412.27,-174 412.27,-174 412.27,-206 412.27,-206"/>
<polygon fill="black" stroke="black" points="408.77,-206 412.27,-216 415.77,-206 408.77,-206"/>
</g>
<!-- EmailService -->
<g id="node12" class="node">
<title>EmailService</title>
<ellipse fill="#fdb462" stroke="black" cx="1230" cy="-104" rx="63.12" ry="18"/>
<text text-anchor="middle" x="1230" y="-99.8" font-family="Times,serif" font-size="14.00">EmailService</text>
</g>
<!-- EmailService&#45;&gt;SharedModule -->
<g id="edge11" class="edge">
<title>EmailService&#45;&gt;SharedModule</title>
<path fill="none" stroke="black" d="M1195.56,-119.3C1195.56,-135.88 1195.56,-160 1195.56,-160 1195.56,-160 896.48,-160 896.48,-160"/>
<polygon fill="black" stroke="black" points="896.48,-156.5 886.48,-160 896.48,-163.5 896.48,-156.5"/>
</g>
<!-- FcmService -->
<g id="node13" class="node">
<title>FcmService</title>
<ellipse fill="#fdb462" stroke="black" cx="1092" cy="-104" rx="57.32" ry="18"/>
<text text-anchor="middle" x="1092" y="-99.8" font-family="Times,serif" font-size="14.00">FcmService</text>
</g>
<!-- FcmService&#45;&gt;SharedModule -->
<g id="edge12" class="edge">
<title>FcmService&#45;&gt;SharedModule</title>
<path fill="none" stroke="black" d="M1077.43,-121.6C1077.43,-136.69 1077.43,-156 1077.43,-156 1077.43,-156 896.23,-156 896.23,-156"/>
<polygon fill="black" stroke="black" points="896.23,-152.5 886.23,-156 896.23,-159.5 896.23,-152.5"/>
</g>
<!-- FileStorageService -->
<g id="node14" class="node">
<title>FileStorageService</title>
<ellipse fill="#fdb462" stroke="black" cx="932" cy="-104" rx="84.52" ry="18"/>
<text text-anchor="middle" x="932" y="-99.8" font-family="Times,serif" font-size="14.00">FileStorageService</text>
</g>
<!-- FileStorageService&#45;&gt;SharedModule -->
<g id="edge13" class="edge">
<title>FileStorageService&#45;&gt;SharedModule</title>
<path fill="none" stroke="black" d="M866.85,-115.62C866.85,-115.62 866.85,-140.85 866.85,-140.85"/>
<polygon fill="black" stroke="black" points="863.35,-140.85 866.85,-150.85 870.35,-140.85 863.35,-140.85"/>
</g>
<!-- GeolocationService -->
<g id="node15" class="node">
<title>GeolocationService</title>
<ellipse fill="#fdb462" stroke="black" cx="742" cy="-104" rx="87.38" ry="18"/>
<text text-anchor="middle" x="742" y="-99.8" font-family="Times,serif" font-size="14.00">GeolocationService</text>
</g>
<!-- GeolocationService&#45;&gt;SharedModule -->
<g id="edge14" class="edge">
<title>GeolocationService&#45;&gt;SharedModule</title>
<path fill="none" stroke="black" d="M808.49,-115.92C808.49,-115.92 808.49,-140.77 808.49,-140.77"/>
<polygon fill="black" stroke="black" points="804.99,-140.77 808.49,-150.77 811.99,-140.77 804.99,-140.77"/>
</g>
<!-- NotificationService -->
<g id="node16" class="node">
<title>NotificationService</title>
<ellipse fill="#fdb462" stroke="black" cx="550" cy="-104" rx="86.81" ry="18"/>
<text text-anchor="middle" x="550" y="-99.8" font-family="Times,serif" font-size="14.00">NotificationService</text>
</g>
<!-- NotificationService&#45;&gt;SharedModule -->
<g id="edge15" class="edge">
<title>NotificationService&#45;&gt;SharedModule</title>
<path fill="none" stroke="black" d="M603.21,-118.21C603.21,-133.61 603.21,-156 603.21,-156 603.21,-156 777.7,-156 777.7,-156"/>
<polygon fill="black" stroke="black" points="777.7,-159.5 787.7,-156 777.7,-152.5 777.7,-159.5"/>
</g>
<!-- PaymentService -->
<g id="node17" class="node">
<title>PaymentService</title>
<ellipse fill="#fdb462" stroke="black" cx="372" cy="-104" rx="73.57" ry="18"/>
<text text-anchor="middle" x="372" y="-99.8" font-family="Times,serif" font-size="14.00">PaymentService</text>
</g>
<!-- PaymentService&#45;&gt;SharedModule -->
<g id="edge16" class="edge">
<title>PaymentService&#45;&gt;SharedModule</title>
<path fill="none" stroke="black" d="M383.73,-122.03C383.73,-138.4 383.73,-160 383.73,-160 383.73,-160 777.63,-160 777.63,-160"/>
<polygon fill="black" stroke="black" points="777.63,-163.5 787.63,-160 777.63,-156.5 777.63,-163.5"/>
</g>
<!-- RedisService -->
<g id="node18" class="node">
<title>RedisService</title>
<ellipse fill="#fdb462" stroke="black" cx="218" cy="-104" rx="61.97" ry="18"/>
<text text-anchor="middle" x="218" y="-99.8" font-family="Times,serif" font-size="14.00">RedisService</text>
</g>
<!-- RedisService&#45;&gt;SharedModule -->
<g id="edge17" class="edge">
<title>RedisService&#45;&gt;SharedModule</title>
<path fill="none" stroke="black" d="M218,-122.3C218,-140.27 218,-165 218,-165 218,-165 777.65,-165 777.65,-165"/>
<polygon fill="black" stroke="black" points="777.65,-168.5 787.65,-165 777.65,-161.5 777.65,-168.5"/>
</g>
<!-- SmsService -->
<g id="node19" class="node">
<title>SmsService</title>
<ellipse fill="#fdb462" stroke="black" cx="81" cy="-104" rx="56.76" ry="18"/>
<text text-anchor="middle" x="81" y="-99.8" font-family="Times,serif" font-size="14.00">SmsService</text>
</g>
<!-- SmsService&#45;&gt;SharedModule -->
<g id="edge18" class="edge">
<title>SmsService&#45;&gt;SharedModule</title>
<path fill="none" stroke="black" d="M81,-122.11C81,-141.34 81,-169 81,-169 81,-169 777.69,-169 777.69,-169"/>
<polygon fill="black" stroke="black" points="777.69,-172.5 787.69,-169 777.69,-165.5 777.69,-172.5"/>
</g>
</g>
</svg>
