<?xml version="1.0" encoding="UTF-8" standalone="no"?>
<!DOCTYPE svg PUBLIC "-//W3C//DTD SVG 1.1//EN"
 "http://www.w3.org/Graphics/SVG/1.1/DTD/svg11.dtd">
<!-- Generated by graphviz version 2.47.0 (20210316.0004)
 -->
<!-- Title: dependencies Pages: 1 -->
<svg width="532pt" height="284pt"
 viewBox="0.00 0.00 532.00 284.00" xmlns="http://www.w3.org/2000/svg" xmlns:xlink="http://www.w3.org/1999/xlink">
<g id="graph0" class="graph" transform="scale(1 1) rotate(0) translate(4 280)">
<title>dependencies</title>
<polygon fill="white" stroke="transparent" points="-4,4 -4,-280 528,-280 528,4 -4,4"/>
<text text-anchor="start" x="241.01" y="-42.4" font-family="Times-12" font-weight="bold" font-size="14.00">Legend</text>
<polygon fill="#ffffb3" stroke="transparent" points="28,-10 28,-30 48,-30 48,-10 28,-10"/>
<text text-anchor="start" x="51.63" y="-15.4" font-family="Times-12" font-size="14.00"> &#160;Declarations</text>
<polygon fill="#8dd3c7" stroke="transparent" points="141,-10 141,-30 161,-30 161,-10 141,-10"/>
<text text-anchor="start" x="164.73" y="-15.4" font-family="Times-12" font-size="14.00"> &#160;Module</text>
<polygon fill="#80b1d3" stroke="transparent" points="227,-10 227,-30 247,-30 247,-10 227,-10"/>
<text text-anchor="start" x="250.78" y="-15.4" font-family="Times-12" font-size="14.00"> &#160;Bootstrap</text>
<polygon fill="#fdb462" stroke="transparent" points="324,-10 324,-30 344,-30 344,-10 324,-10"/>
<text text-anchor="start" x="347.67" y="-15.4" font-family="Times-12" font-size="14.00"> &#160;Providers</text>
<polygon fill="#fb8072" stroke="transparent" points="420,-10 420,-30 440,-30 440,-10 420,-10"/>
<text text-anchor="start" x="443.73" y="-15.4" font-family="Times-12" font-size="14.00"> &#160;Exports</text>
<g id="clust1" class="cluster">
<title>cluster_SettingsModule</title>
<polygon fill="none" stroke="black" stroke-dasharray="1,5" points="8,-70 8,-268 516,-268 516,-70 8,-70"/>
</g>
<g id="clust3" class="cluster">
<title>cluster_SettingsModule_imports</title>
<polygon fill="none" stroke="black" points="394,-78 394,-130 508,-130 508,-78 394,-78"/>
</g>
<g id="clust6" class="cluster">
<title>cluster_SettingsModule_providers</title>
<polygon fill="none" stroke="black" points="16,-78 16,-130 386,-130 386,-78 16,-78"/>
</g>
<g id="clust4" class="cluster">
<title>cluster_SettingsModule_exports</title>
<polygon fill="none" stroke="black" points="220,-208 220,-260 342,-260 342,-208 220,-208"/>
</g>
<!-- PrismaModule -->
<g id="node1" class="node">
<title>PrismaModule</title>
<polygon fill="#8dd3c7" stroke="black" points="500.43,-122 497.43,-126 476.43,-126 473.43,-122 401.57,-122 401.57,-86 500.43,-86 500.43,-122"/>
<text text-anchor="middle" x="451" y="-99.8" font-family="Times,serif" font-size="14.00">PrismaModule</text>
</g>
<!-- SettingsModule -->
<g id="node2" class="node">
<title>SettingsModule</title>
<polygon fill="#8dd3c7" stroke="black" points="333.16,-187 330.16,-191 309.16,-191 306.16,-187 228.84,-187 228.84,-151 333.16,-151 333.16,-187"/>
<text text-anchor="middle" x="281" y="-164.8" font-family="Times,serif" font-size="14.00">SettingsModule</text>
</g>
<!-- PrismaModule&#45;&gt;SettingsModule -->
<g id="edge1" class="edge">
<title>PrismaModule&#45;&gt;SettingsModule</title>
<path fill="none" stroke="black" d="M451,-122.11C451,-141.34 451,-169 451,-169 451,-169 343.39,-169 343.39,-169"/>
<polygon fill="black" stroke="black" points="343.39,-165.5 333.39,-169 343.39,-172.5 343.39,-165.5"/>
</g>
<!-- SettingsService  -->
<g id="node3" class="node">
<title>SettingsService </title>
<polygon fill="#fb8072" stroke="black" points="334.09,-252 227.91,-252 227.91,-216 334.09,-216 334.09,-252"/>
<text text-anchor="middle" x="281" y="-229.8" font-family="Times,serif" font-size="14.00">SettingsService </text>
</g>
<!-- SettingsModule&#45;&gt;SettingsService  -->
<g id="edge2" class="edge">
<title>SettingsModule&#45;&gt;SettingsService </title>
<path fill="none" stroke="black" stroke-dasharray="5,2" d="M281,-187.11C281,-187.11 281,-205.99 281,-205.99"/>
<polygon fill="black" stroke="black" points="277.5,-205.99 281,-215.99 284.5,-205.99 277.5,-205.99"/>
</g>
<!-- SettingsSeederService -->
<g id="node4" class="node">
<title>SettingsSeederService</title>
<ellipse fill="#fdb462" stroke="black" cx="281" cy="-104" rx="97.26" ry="18"/>
<text text-anchor="middle" x="281" y="-99.8" font-family="Times,serif" font-size="14.00">SettingsSeederService</text>
</g>
<!-- SettingsSeederService&#45;&gt;SettingsModule -->
<g id="edge3" class="edge">
<title>SettingsSeederService&#45;&gt;SettingsModule</title>
<path fill="none" stroke="black" d="M281,-122.11C281,-122.11 281,-140.99 281,-140.99"/>
<polygon fill="black" stroke="black" points="277.5,-140.99 281,-150.99 284.5,-140.99 277.5,-140.99"/>
</g>
<!-- SettingsService -->
<g id="node5" class="node">
<title>SettingsService</title>
<ellipse fill="#fdb462" stroke="black" cx="95" cy="-104" rx="71.22" ry="18"/>
<text text-anchor="middle" x="95" y="-99.8" font-family="Times,serif" font-size="14.00">SettingsService</text>
</g>
<!-- SettingsService&#45;&gt;SettingsModule -->
<g id="edge4" class="edge">
<title>SettingsService&#45;&gt;SettingsModule</title>
<path fill="none" stroke="black" d="M95,-122.11C95,-141.34 95,-169 95,-169 95,-169 218.69,-169 218.69,-169"/>
<polygon fill="black" stroke="black" points="218.69,-172.5 228.69,-169 218.69,-165.5 218.69,-172.5"/>
</g>
</g>
</svg>
