<?xml version="1.0" encoding="UTF-8" standalone="no"?>
<!DOCTYPE svg PUBLIC "-//W3C//DTD SVG 1.1//EN"
 "http://www.w3.org/Graphics/SVG/1.1/DTD/svg11.dtd">
<!-- Generated by graphviz version 2.47.0 (20210316.0004)
 -->
<!-- Title: dependencies Pages: 1 -->
<svg width="504pt" height="284pt"
 viewBox="0.00 0.00 504.00 284.00" xmlns="http://www.w3.org/2000/svg" xmlns:xlink="http://www.w3.org/1999/xlink">
<g id="graph0" class="graph" transform="scale(1 1) rotate(0) translate(4 280)">
<title>dependencies</title>
<polygon fill="white" stroke="transparent" points="-4,4 -4,-280 500,-280 500,4 -4,4"/>
<text text-anchor="start" x="227.01" y="-42.4" font-family="Times-12" font-weight="bold" font-size="14.00">Legend</text>
<polygon fill="#ffffb3" stroke="transparent" points="14,-10 14,-30 34,-30 34,-10 14,-10"/>
<text text-anchor="start" x="37.63" y="-15.4" font-family="Times-12" font-size="14.00"> &#160;Declarations</text>
<polygon fill="#8dd3c7" stroke="transparent" points="127,-10 127,-30 147,-30 147,-10 127,-10"/>
<text text-anchor="start" x="150.73" y="-15.4" font-family="Times-12" font-size="14.00"> &#160;Module</text>
<polygon fill="#80b1d3" stroke="transparent" points="213,-10 213,-30 233,-30 233,-10 213,-10"/>
<text text-anchor="start" x="236.78" y="-15.4" font-family="Times-12" font-size="14.00"> &#160;Bootstrap</text>
<polygon fill="#fdb462" stroke="transparent" points="310,-10 310,-30 330,-30 330,-10 310,-10"/>
<text text-anchor="start" x="333.67" y="-15.4" font-family="Times-12" font-size="14.00"> &#160;Providers</text>
<polygon fill="#fb8072" stroke="transparent" points="406,-10 406,-30 426,-30 426,-10 406,-10"/>
<text text-anchor="start" x="429.73" y="-15.4" font-family="Times-12" font-size="14.00"> &#160;Exports</text>
<g id="clust1" class="cluster">
<title>cluster_DineInModule</title>
<polygon fill="none" stroke="black" stroke-dasharray="1,5" points="104,-70 104,-268 392,-268 392,-70 104,-70"/>
</g>
<g id="clust3" class="cluster">
<title>cluster_DineInModule_imports</title>
<polygon fill="none" stroke="black" points="270,-78 270,-130 384,-130 384,-78 270,-78"/>
</g>
<g id="clust6" class="cluster">
<title>cluster_DineInModule_providers</title>
<polygon fill="none" stroke="black" points="112,-78 112,-130 262,-130 262,-78 112,-78"/>
</g>
<g id="clust4" class="cluster">
<title>cluster_DineInModule_exports</title>
<polygon fill="none" stroke="black" points="198,-208 198,-260 314,-260 314,-208 198,-208"/>
</g>
<!-- PrismaModule -->
<g id="node1" class="node">
<title>PrismaModule</title>
<polygon fill="#8dd3c7" stroke="black" points="376.43,-122 373.43,-126 352.43,-126 349.43,-122 277.57,-122 277.57,-86 376.43,-86 376.43,-122"/>
<text text-anchor="middle" x="327" y="-99.8" font-family="Times,serif" font-size="14.00">PrismaModule</text>
</g>
<!-- DineInModule -->
<g id="node2" class="node">
<title>DineInModule</title>
<polygon fill="#8dd3c7" stroke="black" points="305.42,-187 302.42,-191 281.42,-191 278.42,-187 206.58,-187 206.58,-151 305.42,-151 305.42,-187"/>
<text text-anchor="middle" x="256" y="-164.8" font-family="Times,serif" font-size="14.00">DineInModule</text>
</g>
<!-- PrismaModule&#45;&gt;DineInModule -->
<g id="edge1" class="edge">
<title>PrismaModule&#45;&gt;DineInModule</title>
<path fill="none" stroke="black" d="M291.5,-122.11C291.5,-122.11 291.5,-140.99 291.5,-140.99"/>
<polygon fill="black" stroke="black" points="288,-140.99 291.5,-150.99 295,-140.99 288,-140.99"/>
</g>
<!-- DineInService  -->
<g id="node3" class="node">
<title>DineInService </title>
<polygon fill="#fb8072" stroke="black" points="306.35,-252 205.65,-252 205.65,-216 306.35,-216 306.35,-252"/>
<text text-anchor="middle" x="256" y="-229.8" font-family="Times,serif" font-size="14.00">DineInService </text>
</g>
<!-- DineInModule&#45;&gt;DineInService  -->
<g id="edge2" class="edge">
<title>DineInModule&#45;&gt;DineInService </title>
<path fill="none" stroke="black" stroke-dasharray="5,2" d="M256,-187.11C256,-187.11 256,-205.99 256,-205.99"/>
<polygon fill="black" stroke="black" points="252.5,-205.99 256,-215.99 259.5,-205.99 252.5,-205.99"/>
</g>
<!-- DineInService -->
<g id="node4" class="node">
<title>DineInService</title>
<ellipse fill="#fdb462" stroke="black" cx="187" cy="-104" rx="66.61" ry="18"/>
<text text-anchor="middle" x="187" y="-99.8" font-family="Times,serif" font-size="14.00">DineInService</text>
</g>
<!-- DineInService&#45;&gt;DineInModule -->
<g id="edge3" class="edge">
<title>DineInService&#45;&gt;DineInModule</title>
<path fill="none" stroke="black" d="M230.3,-117.78C230.3,-117.78 230.3,-140.55 230.3,-140.55"/>
<polygon fill="black" stroke="black" points="226.8,-140.55 230.3,-150.55 233.8,-140.55 226.8,-140.55"/>
</g>
</g>
</svg>
