<?xml version="1.0" encoding="UTF-8" standalone="no"?>
<!DOCTYPE svg PUBLIC "-//W3C//DTD SVG 1.1//EN"
 "http://www.w3.org/Graphics/SVG/1.1/DTD/svg11.dtd">
<!-- Generated by graphviz version 2.47.0 (20210316.0004)
 -->
<!-- Title: dependencies Pages: 1 -->
<svg width="504pt" height="284pt"
 viewBox="0.00 0.00 504.00 284.00" xmlns="http://www.w3.org/2000/svg" xmlns:xlink="http://www.w3.org/1999/xlink">
<g id="graph0" class="graph" transform="scale(1 1) rotate(0) translate(4 280)">
<title>dependencies</title>
<polygon fill="white" stroke="transparent" points="-4,4 -4,-280 500,-280 500,4 -4,4"/>
<text text-anchor="start" x="227.01" y="-42.4" font-family="Times-12" font-weight="bold" font-size="14.00">Legend</text>
<polygon fill="#ffffb3" stroke="transparent" points="14,-10 14,-30 34,-30 34,-10 14,-10"/>
<text text-anchor="start" x="37.63" y="-15.4" font-family="Times-12" font-size="14.00"> &#160;Declarations</text>
<polygon fill="#8dd3c7" stroke="transparent" points="127,-10 127,-30 147,-30 147,-10 127,-10"/>
<text text-anchor="start" x="150.73" y="-15.4" font-family="Times-12" font-size="14.00"> &#160;Module</text>
<polygon fill="#80b1d3" stroke="transparent" points="213,-10 213,-30 233,-30 233,-10 213,-10"/>
<text text-anchor="start" x="236.78" y="-15.4" font-family="Times-12" font-size="14.00"> &#160;Bootstrap</text>
<polygon fill="#fdb462" stroke="transparent" points="310,-10 310,-30 330,-30 330,-10 310,-10"/>
<text text-anchor="start" x="333.67" y="-15.4" font-family="Times-12" font-size="14.00"> &#160;Providers</text>
<polygon fill="#fb8072" stroke="transparent" points="406,-10 406,-30 426,-30 426,-10 406,-10"/>
<text text-anchor="start" x="429.73" y="-15.4" font-family="Times-12" font-size="14.00"> &#160;Exports</text>
<g id="clust1" class="cluster">
<title>cluster_AdvertisementsModule</title>
<polygon fill="none" stroke="black" stroke-dasharray="1,5" points="70,-70 70,-268 426,-268 426,-70 70,-70"/>
</g>
<g id="clust3" class="cluster">
<title>cluster_AdvertisementsModule_imports</title>
<polygon fill="none" stroke="black" points="304,-78 304,-130 418,-130 418,-78 304,-78"/>
</g>
<g id="clust4" class="cluster">
<title>cluster_AdvertisementsModule_exports</title>
<polygon fill="none" stroke="black" points="178,-208 178,-260 344,-260 344,-208 178,-208"/>
</g>
<g id="clust6" class="cluster">
<title>cluster_AdvertisementsModule_providers</title>
<polygon fill="none" stroke="black" points="78,-78 78,-130 296,-130 296,-78 78,-78"/>
</g>
<!-- PrismaModule -->
<g id="node1" class="node">
<title>PrismaModule</title>
<polygon fill="#8dd3c7" stroke="black" points="410.43,-122 407.43,-126 386.43,-126 383.43,-122 311.57,-122 311.57,-86 410.43,-86 410.43,-122"/>
<text text-anchor="middle" x="361" y="-99.8" font-family="Times,serif" font-size="14.00">PrismaModule</text>
</g>
<!-- AdvertisementsModule -->
<g id="node2" class="node">
<title>AdvertisementsModule</title>
<polygon fill="#8dd3c7" stroke="black" points="334.91,-187 331.91,-191 310.91,-191 307.91,-187 187.09,-187 187.09,-151 334.91,-151 334.91,-187"/>
<text text-anchor="middle" x="261" y="-164.8" font-family="Times,serif" font-size="14.00">AdvertisementsModule</text>
</g>
<!-- PrismaModule&#45;&gt;AdvertisementsModule -->
<g id="edge1" class="edge">
<title>PrismaModule&#45;&gt;AdvertisementsModule</title>
<path fill="none" stroke="black" d="M323.24,-122.11C323.24,-122.11 323.24,-140.99 323.24,-140.99"/>
<polygon fill="black" stroke="black" points="319.74,-140.99 323.24,-150.99 326.74,-140.99 319.74,-140.99"/>
</g>
<!-- AdvertisementsService  -->
<g id="node3" class="node">
<title>AdvertisementsService </title>
<polygon fill="#fb8072" stroke="black" points="335.84,-252 186.16,-252 186.16,-216 335.84,-216 335.84,-252"/>
<text text-anchor="middle" x="261" y="-229.8" font-family="Times,serif" font-size="14.00">AdvertisementsService </text>
</g>
<!-- AdvertisementsModule&#45;&gt;AdvertisementsService  -->
<g id="edge2" class="edge">
<title>AdvertisementsModule&#45;&gt;AdvertisementsService </title>
<path fill="none" stroke="black" stroke-dasharray="5,2" d="M261,-187.11C261,-187.11 261,-205.99 261,-205.99"/>
<polygon fill="black" stroke="black" points="257.5,-205.99 261,-215.99 264.5,-205.99 257.5,-205.99"/>
</g>
<!-- AdvertisementsService -->
<g id="node4" class="node">
<title>AdvertisementsService</title>
<ellipse fill="#fdb462" stroke="black" cx="187" cy="-104" rx="100.7" ry="18"/>
<text text-anchor="middle" x="187" y="-99.8" font-family="Times,serif" font-size="14.00">AdvertisementsService</text>
</g>
<!-- AdvertisementsService&#45;&gt;AdvertisementsModule -->
<g id="edge3" class="edge">
<title>AdvertisementsService&#45;&gt;AdvertisementsModule</title>
<path fill="none" stroke="black" d="M237.45,-119.73C237.45,-119.73 237.45,-140.65 237.45,-140.65"/>
<polygon fill="black" stroke="black" points="233.95,-140.65 237.45,-150.65 240.95,-140.65 233.95,-140.65"/>
</g>
</g>
</svg>
