<?xml version="1.0" encoding="UTF-8" standalone="no"?>
<!DOCTYPE svg PUBLIC "-//W3C//DTD SVG 1.1//EN"
 "http://www.w3.org/Graphics/SVG/1.1/DTD/svg11.dtd">
<!-- Generated by graphviz version 2.47.0 (20210316.0004)
 -->
<!-- Title: dependencies Pages: 1 -->
<svg width="504pt" height="284pt"
 viewBox="0.00 0.00 504.00 284.00" xmlns="http://www.w3.org/2000/svg" xmlns:xlink="http://www.w3.org/1999/xlink">
<g id="graph0" class="graph" transform="scale(1 1) rotate(0) translate(4 280)">
<title>dependencies</title>
<polygon fill="white" stroke="transparent" points="-4,4 -4,-280 500,-280 500,4 -4,4"/>
<text text-anchor="start" x="227.01" y="-42.4" font-family="Times-12" font-weight="bold" font-size="14.00">Legend</text>
<polygon fill="#ffffb3" stroke="transparent" points="14,-10 14,-30 34,-30 34,-10 14,-10"/>
<text text-anchor="start" x="37.63" y="-15.4" font-family="Times-12" font-size="14.00"> &#160;Declarations</text>
<polygon fill="#8dd3c7" stroke="transparent" points="127,-10 127,-30 147,-30 147,-10 127,-10"/>
<text text-anchor="start" x="150.73" y="-15.4" font-family="Times-12" font-size="14.00"> &#160;Module</text>
<polygon fill="#80b1d3" stroke="transparent" points="213,-10 213,-30 233,-30 233,-10 213,-10"/>
<text text-anchor="start" x="236.78" y="-15.4" font-family="Times-12" font-size="14.00"> &#160;Bootstrap</text>
<polygon fill="#fdb462" stroke="transparent" points="310,-10 310,-30 330,-30 330,-10 310,-10"/>
<text text-anchor="start" x="333.67" y="-15.4" font-family="Times-12" font-size="14.00"> &#160;Providers</text>
<polygon fill="#fb8072" stroke="transparent" points="406,-10 406,-30 426,-30 426,-10 406,-10"/>
<text text-anchor="start" x="429.73" y="-15.4" font-family="Times-12" font-size="14.00"> &#160;Exports</text>
<g id="clust1" class="cluster">
<title>cluster_GiftCardsModule</title>
<polygon fill="none" stroke="black" stroke-dasharray="1,5" points="35.5,-70 35.5,-268 460.5,-268 460.5,-70 35.5,-70"/>
</g>
<g id="clust6" class="cluster">
<title>cluster_GiftCardsModule_providers</title>
<polygon fill="none" stroke="black" points="280.5,-78 280.5,-130 452.5,-130 452.5,-78 280.5,-78"/>
</g>
<g id="clust4" class="cluster">
<title>cluster_GiftCardsModule_exports</title>
<polygon fill="none" stroke="black" points="149.5,-208 149.5,-260 281.5,-260 281.5,-208 149.5,-208"/>
</g>
<g id="clust3" class="cluster">
<title>cluster_GiftCardsModule_imports</title>
<polygon fill="none" stroke="black" points="43.5,-78 43.5,-130 272.5,-130 272.5,-78 43.5,-78"/>
</g>
<!-- PrismaModule -->
<g id="node1" class="node">
<title>PrismaModule</title>
<polygon fill="#8dd3c7" stroke="black" points="264.93,-122 261.93,-126 240.93,-126 237.93,-122 166.07,-122 166.07,-86 264.93,-86 264.93,-122"/>
<text text-anchor="middle" x="215.5" y="-99.8" font-family="Times,serif" font-size="14.00">PrismaModule</text>
</g>
<!-- GiftCardsModule -->
<g id="node3" class="node">
<title>GiftCardsModule</title>
<polygon fill="#8dd3c7" stroke="black" points="272.75,-187 269.75,-191 248.75,-191 245.75,-187 158.25,-187 158.25,-151 272.75,-151 272.75,-187"/>
<text text-anchor="middle" x="215.5" y="-164.8" font-family="Times,serif" font-size="14.00">GiftCardsModule</text>
</g>
<!-- PrismaModule&#45;&gt;GiftCardsModule -->
<g id="edge1" class="edge">
<title>PrismaModule&#45;&gt;GiftCardsModule</title>
<path fill="none" stroke="black" d="M215.5,-122.11C215.5,-122.11 215.5,-140.99 215.5,-140.99"/>
<polygon fill="black" stroke="black" points="212,-140.99 215.5,-150.99 219,-140.99 212,-140.99"/>
</g>
<!-- WalletModule -->
<g id="node2" class="node">
<title>WalletModule</title>
<polygon fill="#8dd3c7" stroke="black" points="147.87,-122 144.87,-126 123.87,-126 120.87,-122 51.13,-122 51.13,-86 147.87,-86 147.87,-122"/>
<text text-anchor="middle" x="99.5" y="-99.8" font-family="Times,serif" font-size="14.00">WalletModule</text>
</g>
<!-- WalletModule&#45;&gt;GiftCardsModule -->
<g id="edge2" class="edge">
<title>WalletModule&#45;&gt;GiftCardsModule</title>
<path fill="none" stroke="black" d="M147.97,-104C156.23,-104 162.2,-104 162.2,-104 162.2,-104 162.2,-140.89 162.2,-140.89"/>
<polygon fill="black" stroke="black" points="158.7,-140.89 162.2,-150.89 165.7,-140.89 158.7,-140.89"/>
</g>
<!-- GiftCardsService  -->
<g id="node4" class="node">
<title>GiftCardsService </title>
<polygon fill="#fb8072" stroke="black" points="273.68,-252 157.32,-252 157.32,-216 273.68,-216 273.68,-252"/>
<text text-anchor="middle" x="215.5" y="-229.8" font-family="Times,serif" font-size="14.00">GiftCardsService </text>
</g>
<!-- GiftCardsModule&#45;&gt;GiftCardsService  -->
<g id="edge3" class="edge">
<title>GiftCardsModule&#45;&gt;GiftCardsService </title>
<path fill="none" stroke="black" stroke-dasharray="5,2" d="M215.5,-187.11C215.5,-187.11 215.5,-205.99 215.5,-205.99"/>
<polygon fill="black" stroke="black" points="212,-205.99 215.5,-215.99 219,-205.99 212,-205.99"/>
</g>
<!-- GiftCardsService -->
<g id="node5" class="node">
<title>GiftCardsService</title>
<ellipse fill="#fdb462" stroke="black" cx="366.5" cy="-104" rx="78.14" ry="18"/>
<text text-anchor="middle" x="366.5" y="-99.8" font-family="Times,serif" font-size="14.00">GiftCardsService</text>
</g>
<!-- GiftCardsService&#45;&gt;GiftCardsModule -->
<g id="edge4" class="edge">
<title>GiftCardsService&#45;&gt;GiftCardsModule</title>
<path fill="none" stroke="black" d="M288.1,-104C276.74,-104 268.8,-104 268.8,-104 268.8,-104 268.8,-140.89 268.8,-140.89"/>
<polygon fill="black" stroke="black" points="265.3,-140.89 268.8,-150.89 272.3,-140.89 265.3,-140.89"/>
</g>
</g>
</svg>
