<?xml version="1.0" encoding="UTF-8" standalone="no"?>
<!DOCTYPE svg PUBLIC "-//W3C//DTD SVG 1.1//EN"
 "http://www.w3.org/Graphics/SVG/1.1/DTD/svg11.dtd">
<!-- Generated by graphviz version 2.47.0 (20210316.0004)
 -->
<!-- Title: dependencies Pages: 1 -->
<svg width="504pt" height="284pt"
 viewBox="0.00 0.00 504.00 284.00" xmlns="http://www.w3.org/2000/svg" xmlns:xlink="http://www.w3.org/1999/xlink">
<g id="graph0" class="graph" transform="scale(1 1) rotate(0) translate(4 280)">
<title>dependencies</title>
<polygon fill="white" stroke="transparent" points="-4,4 -4,-280 500,-280 500,4 -4,4"/>
<text text-anchor="start" x="227.01" y="-42.4" font-family="Times-12" font-weight="bold" font-size="14.00">Legend</text>
<polygon fill="#ffffb3" stroke="transparent" points="14,-10 14,-30 34,-30 34,-10 14,-10"/>
<text text-anchor="start" x="37.63" y="-15.4" font-family="Times-12" font-size="14.00"> &#160;Declarations</text>
<polygon fill="#8dd3c7" stroke="transparent" points="127,-10 127,-30 147,-30 147,-10 127,-10"/>
<text text-anchor="start" x="150.73" y="-15.4" font-family="Times-12" font-size="14.00"> &#160;Module</text>
<polygon fill="#80b1d3" stroke="transparent" points="213,-10 213,-30 233,-30 233,-10 213,-10"/>
<text text-anchor="start" x="236.78" y="-15.4" font-family="Times-12" font-size="14.00"> &#160;Bootstrap</text>
<polygon fill="#fdb462" stroke="transparent" points="310,-10 310,-30 330,-30 330,-10 310,-10"/>
<text text-anchor="start" x="333.67" y="-15.4" font-family="Times-12" font-size="14.00"> &#160;Providers</text>
<polygon fill="#fb8072" stroke="transparent" points="406,-10 406,-30 426,-30 426,-10 406,-10"/>
<text text-anchor="start" x="429.73" y="-15.4" font-family="Times-12" font-size="14.00"> &#160;Exports</text>
<g id="clust1" class="cluster">
<title>cluster_DriversModule</title>
<polygon fill="none" stroke="black" stroke-dasharray="1,5" points="105,-70 105,-268 391,-268 391,-70 105,-70"/>
</g>
<g id="clust4" class="cluster">
<title>cluster_DriversModule_exports</title>
<polygon fill="none" stroke="black" points="196,-208 196,-260 316,-260 316,-208 196,-208"/>
</g>
<g id="clust3" class="cluster">
<title>cluster_DriversModule_imports</title>
<polygon fill="none" stroke="black" points="275,-78 275,-130 383,-130 383,-78 275,-78"/>
</g>
<g id="clust6" class="cluster">
<title>cluster_DriversModule_providers</title>
<polygon fill="none" stroke="black" points="113,-78 113,-130 267,-130 267,-78 113,-78"/>
</g>
<!-- UsersModule -->
<g id="node1" class="node">
<title>UsersModule</title>
<polygon fill="#8dd3c7" stroke="black" points="374.92,-122 371.92,-126 350.92,-126 347.92,-122 283.08,-122 283.08,-86 374.92,-86 374.92,-122"/>
<text text-anchor="middle" x="329" y="-99.8" font-family="Times,serif" font-size="14.00">UsersModule</text>
</g>
<!-- DriversModule -->
<g id="node2" class="node">
<title>DriversModule</title>
<polygon fill="#8dd3c7" stroke="black" points="306.53,-187 303.53,-191 282.53,-191 279.53,-187 205.47,-187 205.47,-151 306.53,-151 306.53,-187"/>
<text text-anchor="middle" x="256" y="-164.8" font-family="Times,serif" font-size="14.00">DriversModule</text>
</g>
<!-- UsersModule&#45;&gt;DriversModule -->
<g id="edge1" class="edge">
<title>UsersModule&#45;&gt;DriversModule</title>
<path fill="none" stroke="black" d="M295.03,-122.11C295.03,-122.11 295.03,-140.99 295.03,-140.99"/>
<polygon fill="black" stroke="black" points="291.53,-140.99 295.03,-150.99 298.53,-140.99 291.53,-140.99"/>
</g>
<!-- DriversService  -->
<g id="node3" class="node">
<title>DriversService </title>
<polygon fill="#fb8072" stroke="black" points="307.96,-252 204.04,-252 204.04,-216 307.96,-216 307.96,-252"/>
<text text-anchor="middle" x="256" y="-229.8" font-family="Times,serif" font-size="14.00">DriversService </text>
</g>
<!-- DriversModule&#45;&gt;DriversService  -->
<g id="edge2" class="edge">
<title>DriversModule&#45;&gt;DriversService </title>
<path fill="none" stroke="black" stroke-dasharray="5,2" d="M256,-187.11C256,-187.11 256,-205.99 256,-205.99"/>
<polygon fill="black" stroke="black" points="252.5,-205.99 256,-215.99 259.5,-205.99 252.5,-205.99"/>
</g>
<!-- DriversService -->
<g id="node4" class="node">
<title>DriversService</title>
<ellipse fill="#fdb462" stroke="black" cx="190" cy="-104" rx="68.89" ry="18"/>
<text text-anchor="middle" x="190" y="-99.8" font-family="Times,serif" font-size="14.00">DriversService</text>
</g>
<!-- DriversService&#45;&gt;DriversModule -->
<g id="edge3" class="edge">
<title>DriversService&#45;&gt;DriversModule</title>
<path fill="none" stroke="black" d="M232.09,-118.43C232.09,-118.43 232.09,-140.89 232.09,-140.89"/>
<polygon fill="black" stroke="black" points="228.59,-140.89 232.09,-150.89 235.59,-140.89 228.59,-140.89"/>
</g>
</g>
</svg>
