<?xml version="1.0" encoding="UTF-8" standalone="no"?>
<!DOCTYPE svg PUBLIC "-//W3C//DTD SVG 1.1//EN"
 "http://www.w3.org/Graphics/SVG/1.1/DTD/svg11.dtd">
<!-- Generated by graphviz version 2.47.0 (20210316.0004)
 -->
<!-- Title: dependencies Pages: 1 -->
<svg width="619pt" height="284pt"
 viewBox="0.00 0.00 619.00 284.00" xmlns="http://www.w3.org/2000/svg" xmlns:xlink="http://www.w3.org/1999/xlink">
<g id="graph0" class="graph" transform="scale(1 1) rotate(0) translate(4 280)">
<title>dependencies</title>
<polygon fill="white" stroke="transparent" points="-4,4 -4,-280 615,-280 615,4 -4,4"/>
<text text-anchor="start" x="284.51" y="-42.4" font-family="Times-12" font-weight="bold" font-size="14.00">Legend</text>
<polygon fill="#ffffb3" stroke="transparent" points="71.5,-10 71.5,-30 91.5,-30 91.5,-10 71.5,-10"/>
<text text-anchor="start" x="95.13" y="-15.4" font-family="Times-12" font-size="14.00"> &#160;Declarations</text>
<polygon fill="#8dd3c7" stroke="transparent" points="184.5,-10 184.5,-30 204.5,-30 204.5,-10 184.5,-10"/>
<text text-anchor="start" x="208.23" y="-15.4" font-family="Times-12" font-size="14.00"> &#160;Module</text>
<polygon fill="#80b1d3" stroke="transparent" points="270.5,-10 270.5,-30 290.5,-30 290.5,-10 270.5,-10"/>
<text text-anchor="start" x="294.28" y="-15.4" font-family="Times-12" font-size="14.00"> &#160;Bootstrap</text>
<polygon fill="#fdb462" stroke="transparent" points="367.5,-10 367.5,-30 387.5,-30 387.5,-10 367.5,-10"/>
<text text-anchor="start" x="391.17" y="-15.4" font-family="Times-12" font-size="14.00"> &#160;Providers</text>
<polygon fill="#fb8072" stroke="transparent" points="463.5,-10 463.5,-30 483.5,-30 483.5,-10 463.5,-10"/>
<text text-anchor="start" x="487.23" y="-15.4" font-family="Times-12" font-size="14.00"> &#160;Exports</text>
<g id="clust1" class="cluster">
<title>cluster_VendorTypesModule</title>
<polygon fill="none" stroke="black" stroke-dasharray="1,5" points="8,-70 8,-268 603,-268 603,-70 8,-70"/>
</g>
<g id="clust4" class="cluster">
<title>cluster_VendorTypesModule_exports</title>
<polygon fill="none" stroke="black" points="269,-208 269,-260 423,-260 423,-208 269,-208"/>
</g>
<g id="clust3" class="cluster">
<title>cluster_VendorTypesModule_imports</title>
<polygon fill="none" stroke="black" points="481,-78 481,-130 595,-130 595,-78 481,-78"/>
</g>
<g id="clust6" class="cluster">
<title>cluster_VendorTypesModule_providers</title>
<polygon fill="none" stroke="black" points="16,-78 16,-130 473,-130 473,-78 16,-78"/>
</g>
<!-- PrismaModule -->
<g id="node1" class="node">
<title>PrismaModule</title>
<polygon fill="#8dd3c7" stroke="black" points="587.43,-122 584.43,-126 563.43,-126 560.43,-122 488.57,-122 488.57,-86 587.43,-86 587.43,-122"/>
<text text-anchor="middle" x="538" y="-99.8" font-family="Times,serif" font-size="14.00">PrismaModule</text>
</g>
<!-- VendorTypesModule -->
<g id="node2" class="node">
<title>VendorTypesModule</title>
<polygon fill="#8dd3c7" stroke="black" points="413.74,-187 410.74,-191 389.74,-191 386.74,-187 278.26,-187 278.26,-151 413.74,-151 413.74,-187"/>
<text text-anchor="middle" x="346" y="-164.8" font-family="Times,serif" font-size="14.00">VendorTypesModule</text>
</g>
<!-- PrismaModule&#45;&gt;VendorTypesModule -->
<g id="edge1" class="edge">
<title>PrismaModule&#45;&gt;VendorTypesModule</title>
<path fill="none" stroke="black" d="M538,-122.11C538,-141.34 538,-169 538,-169 538,-169 423.96,-169 423.96,-169"/>
<polygon fill="black" stroke="black" points="423.96,-165.5 413.96,-169 423.96,-172.5 423.96,-165.5"/>
</g>
<!-- VendorTypesService  -->
<g id="node3" class="node">
<title>VendorTypesService </title>
<polygon fill="#fb8072" stroke="black" points="414.67,-252 277.33,-252 277.33,-216 414.67,-216 414.67,-252"/>
<text text-anchor="middle" x="346" y="-229.8" font-family="Times,serif" font-size="14.00">VendorTypesService </text>
</g>
<!-- VendorTypesModule&#45;&gt;VendorTypesService  -->
<g id="edge2" class="edge">
<title>VendorTypesModule&#45;&gt;VendorTypesService </title>
<path fill="none" stroke="black" stroke-dasharray="5,2" d="M346,-187.11C346,-187.11 346,-205.99 346,-205.99"/>
<polygon fill="black" stroke="black" points="342.5,-205.99 346,-215.99 349.5,-205.99 342.5,-205.99"/>
</g>
<!-- VendorTypesSeederService -->
<g id="node4" class="node">
<title>VendorTypesSeederService</title>
<ellipse fill="#fdb462" stroke="black" cx="346" cy="-104" rx="118.64" ry="18"/>
<text text-anchor="middle" x="346" y="-99.8" font-family="Times,serif" font-size="14.00">VendorTypesSeederService</text>
</g>
<!-- VendorTypesSeederService&#45;&gt;VendorTypesModule -->
<g id="edge3" class="edge">
<title>VendorTypesSeederService&#45;&gt;VendorTypesModule</title>
<path fill="none" stroke="black" d="M346,-122.11C346,-122.11 346,-140.99 346,-140.99"/>
<polygon fill="black" stroke="black" points="342.5,-140.99 346,-150.99 349.5,-140.99 342.5,-140.99"/>
</g>
<!-- VendorTypesService -->
<g id="node5" class="node">
<title>VendorTypesService</title>
<ellipse fill="#fdb462" stroke="black" cx="117" cy="-104" rx="92.6" ry="18"/>
<text text-anchor="middle" x="117" y="-99.8" font-family="Times,serif" font-size="14.00">VendorTypesService</text>
</g>
<!-- VendorTypesService&#45;&gt;VendorTypesModule -->
<g id="edge4" class="edge">
<title>VendorTypesService&#45;&gt;VendorTypesModule</title>
<path fill="none" stroke="black" d="M117,-122.11C117,-141.34 117,-169 117,-169 117,-169 268.22,-169 268.22,-169"/>
<polygon fill="black" stroke="black" points="268.22,-172.5 278.22,-169 268.22,-165.5 268.22,-172.5"/>
</g>
</g>
</svg>
