<?xml version="1.0" encoding="UTF-8" standalone="no"?>
<!DOCTYPE svg PUBLIC "-//W3C//DTD SVG 1.1//EN"
 "http://www.w3.org/Graphics/SVG/1.1/DTD/svg11.dtd">
<!-- Generated by graphviz version 2.47.0 (20210316.0004)
 -->
<!-- Title: dependencies Pages: 1 -->
<svg width="1228pt" height="211pt"
 viewBox="0.00 0.00 1228.00 211.00" xmlns="http://www.w3.org/2000/svg" xmlns:xlink="http://www.w3.org/1999/xlink">
<g id="graph0" class="graph" transform="scale(1 1) rotate(0) translate(4 207)">
<title>dependencies</title>
<polygon fill="white" stroke="transparent" points="-4,4 -4,-207 1224,-207 1224,4 -4,4"/>
<text text-anchor="start" x="589.01" y="-42.4" font-family="Times-12" font-weight="bold" font-size="14.00">Legend</text>
<polygon fill="#ffffb3" stroke="transparent" points="376,-10 376,-30 396,-30 396,-10 376,-10"/>
<text text-anchor="start" x="399.63" y="-15.4" font-family="Times-12" font-size="14.00"> &#160;Declarations</text>
<polygon fill="#8dd3c7" stroke="transparent" points="489,-10 489,-30 509,-30 509,-10 489,-10"/>
<text text-anchor="start" x="512.73" y="-15.4" font-family="Times-12" font-size="14.00"> &#160;Module</text>
<polygon fill="#80b1d3" stroke="transparent" points="575,-10 575,-30 595,-30 595,-10 575,-10"/>
<text text-anchor="start" x="598.78" y="-15.4" font-family="Times-12" font-size="14.00"> &#160;Bootstrap</text>
<polygon fill="#fdb462" stroke="transparent" points="672,-10 672,-30 692,-30 692,-10 672,-10"/>
<text text-anchor="start" x="695.67" y="-15.4" font-family="Times-12" font-size="14.00"> &#160;Providers</text>
<polygon fill="#fb8072" stroke="transparent" points="768,-10 768,-30 788,-30 788,-10 768,-10"/>
<text text-anchor="start" x="791.73" y="-15.4" font-family="Times-12" font-size="14.00"> &#160;Exports</text>
<g id="clust1" class="cluster">
<title>cluster_AuthModule</title>
<polygon fill="none" stroke="black" stroke-dasharray="1,5" points="8,-70 8,-195 1212,-195 1212,-70 8,-70"/>
</g>
<g id="clust6" class="cluster">
<title>cluster_AuthModule_providers</title>
<polygon fill="none" stroke="black" points="248,-78 248,-130 1204,-130 1204,-78 248,-78"/>
</g>
<g id="clust3" class="cluster">
<title>cluster_AuthModule_imports</title>
<polygon fill="none" stroke="black" points="16,-78 16,-130 240,-130 240,-78 16,-78"/>
</g>
<!-- SharedModule -->
<g id="node1" class="node">
<title>SharedModule</title>
<polygon fill="#8dd3c7" stroke="black" points="232.42,-122 229.42,-126 208.42,-126 205.42,-122 133.58,-122 133.58,-86 232.42,-86 232.42,-122"/>
<text text-anchor="middle" x="183" y="-99.8" font-family="Times,serif" font-size="14.00">SharedModule</text>
</g>
<!-- AuthModule -->
<g id="node3" class="node">
<title>AuthModule</title>
<polygon fill="#8dd3c7" stroke="black" points="590.55,-187 587.55,-191 566.55,-191 563.55,-187 503.45,-187 503.45,-151 590.55,-151 590.55,-187"/>
<text text-anchor="middle" x="547" y="-164.8" font-family="Times,serif" font-size="14.00">AuthModule</text>
</g>
<!-- SharedModule&#45;&gt;AuthModule -->
<g id="edge1" class="edge">
<title>SharedModule&#45;&gt;AuthModule</title>
<path fill="none" stroke="black" d="M183,-122.11C183,-141.34 183,-169 183,-169 183,-169 493.09,-169 493.09,-169"/>
<polygon fill="black" stroke="black" points="493.09,-172.5 503.09,-169 493.09,-165.5 493.09,-172.5"/>
</g>
<!-- UsersModule -->
<g id="node2" class="node">
<title>UsersModule</title>
<polygon fill="#8dd3c7" stroke="black" points="115.92,-122 112.92,-126 91.92,-126 88.92,-122 24.08,-122 24.08,-86 115.92,-86 115.92,-122"/>
<text text-anchor="middle" x="70" y="-99.8" font-family="Times,serif" font-size="14.00">UsersModule</text>
</g>
<!-- UsersModule&#45;&gt;AuthModule -->
<g id="edge2" class="edge">
<title>UsersModule&#45;&gt;AuthModule</title>
<path fill="none" stroke="black" d="M70,-122.29C70,-144.21 70,-178 70,-178 70,-178 493.4,-178 493.4,-178"/>
<polygon fill="black" stroke="black" points="493.4,-181.5 503.4,-178 493.4,-174.5 493.4,-181.5"/>
</g>
<!-- AppleAuthService -->
<g id="node4" class="node">
<title>AppleAuthService</title>
<ellipse fill="#fdb462" stroke="black" cx="1113" cy="-104" rx="82.81" ry="18"/>
<text text-anchor="middle" x="1113" y="-99.8" font-family="Times,serif" font-size="14.00">AppleAuthService</text>
</g>
<!-- AppleAuthService&#45;&gt;AuthModule -->
<g id="edge3" class="edge">
<title>AppleAuthService&#45;&gt;AuthModule</title>
<path fill="none" stroke="black" d="M1113,-122.29C1113,-144.21 1113,-178 1113,-178 1113,-178 600.94,-178 600.94,-178"/>
<polygon fill="black" stroke="black" points="600.94,-174.5 590.94,-178 600.94,-181.5 600.94,-174.5"/>
</g>
<!-- AppleStrategy -->
<g id="node5" class="node">
<title>AppleStrategy</title>
<ellipse fill="#fdb462" stroke="black" cx="945" cy="-104" rx="66.63" ry="18"/>
<text text-anchor="middle" x="945" y="-99.8" font-family="Times,serif" font-size="14.00">AppleStrategy</text>
</g>
<!-- AppleStrategy&#45;&gt;AuthModule -->
<g id="edge4" class="edge">
<title>AppleStrategy&#45;&gt;AuthModule</title>
<path fill="none" stroke="black" d="M945,-122.11C945,-141.34 945,-169 945,-169 945,-169 600.73,-169 600.73,-169"/>
<polygon fill="black" stroke="black" points="600.73,-165.5 590.73,-169 600.73,-172.5 600.73,-165.5"/>
</g>
<!-- AuthService -->
<g id="node6" class="node">
<title>AuthService</title>
<ellipse fill="#fdb462" stroke="black" cx="801" cy="-104" rx="59.11" ry="18"/>
<text text-anchor="middle" x="801" y="-99.8" font-family="Times,serif" font-size="14.00">AuthService</text>
</g>
<!-- AuthService&#45;&gt;AuthModule -->
<g id="edge5" class="edge">
<title>AuthService&#45;&gt;AuthModule</title>
<path fill="none" stroke="black" d="M801,-122.03C801,-138.4 801,-160 801,-160 801,-160 600.66,-160 600.66,-160"/>
<polygon fill="black" stroke="black" points="600.66,-156.5 590.66,-160 600.66,-163.5 600.66,-156.5"/>
</g>
<!-- GoogleAuthService -->
<g id="node7" class="node">
<title>GoogleAuthService</title>
<ellipse fill="#fdb462" stroke="black" cx="636" cy="-104" rx="87.96" ry="18"/>
<text text-anchor="middle" x="636" y="-99.8" font-family="Times,serif" font-size="14.00">GoogleAuthService</text>
</g>
<!-- GoogleAuthService&#45;&gt;AuthModule -->
<g id="edge6" class="edge">
<title>GoogleAuthService&#45;&gt;AuthModule</title>
<path fill="none" stroke="black" d="M569.52,-115.92C569.52,-115.92 569.52,-140.77 569.52,-140.77"/>
<polygon fill="black" stroke="black" points="566.02,-140.77 569.52,-150.77 573.02,-140.77 566.02,-140.77"/>
</g>
<!-- GoogleStrategy -->
<g id="node8" class="node">
<title>GoogleStrategy</title>
<ellipse fill="#fdb462" stroke="black" cx="459" cy="-104" rx="71.79" ry="18"/>
<text text-anchor="middle" x="459" y="-99.8" font-family="Times,serif" font-size="14.00">GoogleStrategy</text>
</g>
<!-- GoogleStrategy&#45;&gt;AuthModule -->
<g id="edge7" class="edge">
<title>GoogleStrategy&#45;&gt;AuthModule</title>
<path fill="none" stroke="black" d="M516.94,-114.73C516.94,-114.73 516.94,-140.87 516.94,-140.87"/>
<polygon fill="black" stroke="black" points="513.44,-140.87 516.94,-150.87 520.44,-140.87 513.44,-140.87"/>
</g>
<!-- JwtStrategy -->
<g id="node9" class="node">
<title>JwtStrategy</title>
<ellipse fill="#fdb462" stroke="black" cx="313" cy="-104" rx="56.76" ry="18"/>
<text text-anchor="middle" x="313" y="-99.8" font-family="Times,serif" font-size="14.00">JwtStrategy</text>
</g>
<!-- JwtStrategy&#45;&gt;AuthModule -->
<g id="edge8" class="edge">
<title>JwtStrategy&#45;&gt;AuthModule</title>
<path fill="none" stroke="black" d="M313,-122.03C313,-138.4 313,-160 313,-160 313,-160 493.26,-160 493.26,-160"/>
<polygon fill="black" stroke="black" points="493.26,-163.5 503.26,-160 493.26,-156.5 493.26,-163.5"/>
</g>
</g>
</svg>
