<?xml version="1.0" encoding="UTF-8" standalone="no"?>
<!DOCTYPE svg PUBLIC "-//W3C//DTD SVG 1.1//EN"
 "http://www.w3.org/Graphics/SVG/1.1/DTD/svg11.dtd">
<!-- Generated by graphviz version 2.47.0 (20210316.0004)
 -->
<!-- Title: dependencies Pages: 1 -->
<svg width="584pt" height="284pt"
 viewBox="0.00 0.00 584.00 284.00" xmlns="http://www.w3.org/2000/svg" xmlns:xlink="http://www.w3.org/1999/xlink">
<g id="graph0" class="graph" transform="scale(1 1) rotate(0) translate(4 280)">
<title>dependencies</title>
<polygon fill="white" stroke="transparent" points="-4,4 -4,-280 580,-280 580,4 -4,4"/>
<text text-anchor="start" x="267.01" y="-42.4" font-family="Times-12" font-weight="bold" font-size="14.00">Legend</text>
<polygon fill="#ffffb3" stroke="transparent" points="54,-10 54,-30 74,-30 74,-10 54,-10"/>
<text text-anchor="start" x="77.63" y="-15.4" font-family="Times-12" font-size="14.00"> &#160;Declarations</text>
<polygon fill="#8dd3c7" stroke="transparent" points="167,-10 167,-30 187,-30 187,-10 167,-10"/>
<text text-anchor="start" x="190.73" y="-15.4" font-family="Times-12" font-size="14.00"> &#160;Module</text>
<polygon fill="#80b1d3" stroke="transparent" points="253,-10 253,-30 273,-30 273,-10 253,-10"/>
<text text-anchor="start" x="276.78" y="-15.4" font-family="Times-12" font-size="14.00"> &#160;Bootstrap</text>
<polygon fill="#fdb462" stroke="transparent" points="350,-10 350,-30 370,-30 370,-10 350,-10"/>
<text text-anchor="start" x="373.67" y="-15.4" font-family="Times-12" font-size="14.00"> &#160;Providers</text>
<polygon fill="#fb8072" stroke="transparent" points="446,-10 446,-30 466,-30 466,-10 446,-10"/>
<text text-anchor="start" x="469.73" y="-15.4" font-family="Times-12" font-size="14.00"> &#160;Exports</text>
<g id="clust1" class="cluster">
<title>cluster_DocumentsModule</title>
<polygon fill="none" stroke="black" stroke-dasharray="1,5" points="8,-70 8,-268 568,-268 568,-70 8,-70"/>
</g>
<g id="clust3" class="cluster">
<title>cluster_DocumentsModule_imports</title>
<polygon fill="none" stroke="black" points="446,-78 446,-130 560,-130 560,-78 446,-78"/>
</g>
<g id="clust4" class="cluster">
<title>cluster_DocumentsModule_exports</title>
<polygon fill="none" stroke="black" points="249,-208 249,-260 391,-260 391,-208 249,-208"/>
</g>
<g id="clust6" class="cluster">
<title>cluster_DocumentsModule_providers</title>
<polygon fill="none" stroke="black" points="16,-78 16,-130 438,-130 438,-78 16,-78"/>
</g>
<!-- PrismaModule -->
<g id="node1" class="node">
<title>PrismaModule</title>
<polygon fill="#8dd3c7" stroke="black" points="552.43,-122 549.43,-126 528.43,-126 525.43,-122 453.57,-122 453.57,-86 552.43,-86 552.43,-122"/>
<text text-anchor="middle" x="503" y="-99.8" font-family="Times,serif" font-size="14.00">PrismaModule</text>
</g>
<!-- DocumentsModule -->
<g id="node2" class="node">
<title>DocumentsModule</title>
<polygon fill="#8dd3c7" stroke="black" points="381.81,-187 378.81,-191 357.81,-191 354.81,-187 258.19,-187 258.19,-151 381.81,-151 381.81,-187"/>
<text text-anchor="middle" x="320" y="-164.8" font-family="Times,serif" font-size="14.00">DocumentsModule</text>
</g>
<!-- PrismaModule&#45;&gt;DocumentsModule -->
<g id="edge1" class="edge">
<title>PrismaModule&#45;&gt;DocumentsModule</title>
<path fill="none" stroke="black" d="M503,-122.11C503,-141.34 503,-169 503,-169 503,-169 391.7,-169 391.7,-169"/>
<polygon fill="black" stroke="black" points="391.7,-165.5 381.7,-169 391.7,-172.5 391.7,-165.5"/>
</g>
<!-- DocumentsService  -->
<g id="node3" class="node">
<title>DocumentsService </title>
<polygon fill="#fb8072" stroke="black" points="382.74,-252 257.26,-252 257.26,-216 382.74,-216 382.74,-252"/>
<text text-anchor="middle" x="320" y="-229.8" font-family="Times,serif" font-size="14.00">DocumentsService </text>
</g>
<!-- DocumentsModule&#45;&gt;DocumentsService  -->
<g id="edge2" class="edge">
<title>DocumentsModule&#45;&gt;DocumentsService </title>
<path fill="none" stroke="black" stroke-dasharray="5,2" d="M320,-187.11C320,-187.11 320,-205.99 320,-205.99"/>
<polygon fill="black" stroke="black" points="316.5,-205.99 320,-215.99 323.5,-205.99 316.5,-205.99"/>
</g>
<!-- DocumentsSeederService -->
<g id="node4" class="node">
<title>DocumentsSeederService</title>
<ellipse fill="#fdb462" stroke="black" cx="320" cy="-104" rx="110.49" ry="18"/>
<text text-anchor="middle" x="320" y="-99.8" font-family="Times,serif" font-size="14.00">DocumentsSeederService</text>
</g>
<!-- DocumentsSeederService&#45;&gt;DocumentsModule -->
<g id="edge3" class="edge">
<title>DocumentsSeederService&#45;&gt;DocumentsModule</title>
<path fill="none" stroke="black" d="M320,-122.11C320,-122.11 320,-140.99 320,-140.99"/>
<polygon fill="black" stroke="black" points="316.5,-140.99 320,-150.99 323.5,-140.99 316.5,-140.99"/>
</g>
<!-- DocumentsService -->
<g id="node5" class="node">
<title>DocumentsService</title>
<ellipse fill="#fdb462" stroke="black" cx="108" cy="-104" rx="83.95" ry="18"/>
<text text-anchor="middle" x="108" y="-99.8" font-family="Times,serif" font-size="14.00">DocumentsService</text>
</g>
<!-- DocumentsService&#45;&gt;DocumentsModule -->
<g id="edge4" class="edge">
<title>DocumentsService&#45;&gt;DocumentsModule</title>
<path fill="none" stroke="black" d="M108,-122.11C108,-141.34 108,-169 108,-169 108,-169 248.11,-169 248.11,-169"/>
<polygon fill="black" stroke="black" points="248.11,-172.5 258.11,-169 248.11,-165.5 248.11,-172.5"/>
</g>
</g>
</svg>
