<?xml version="1.0" encoding="UTF-8" standalone="no"?>
<!DOCTYPE svg PUBLIC "-//W3C//DTD SVG 1.1//EN"
 "http://www.w3.org/Graphics/SVG/1.1/DTD/svg11.dtd">
<!-- Generated by graphviz version 2.47.0 (20210316.0004)
 -->
<!-- Title: dependencies Pages: 1 -->
<svg width="504pt" height="284pt"
 viewBox="0.00 0.00 504.00 284.00" xmlns="http://www.w3.org/2000/svg" xmlns:xlink="http://www.w3.org/1999/xlink">
<g id="graph0" class="graph" transform="scale(1 1) rotate(0) translate(4 280)">
<title>dependencies</title>
<polygon fill="white" stroke="transparent" points="-4,4 -4,-280 500,-280 500,4 -4,4"/>
<text text-anchor="start" x="227.01" y="-42.4" font-family="Times-12" font-weight="bold" font-size="14.00">Legend</text>
<polygon fill="#ffffb3" stroke="transparent" points="14,-10 14,-30 34,-30 34,-10 14,-10"/>
<text text-anchor="start" x="37.63" y="-15.4" font-family="Times-12" font-size="14.00"> &#160;Declarations</text>
<polygon fill="#8dd3c7" stroke="transparent" points="127,-10 127,-30 147,-30 147,-10 127,-10"/>
<text text-anchor="start" x="150.73" y="-15.4" font-family="Times-12" font-size="14.00"> &#160;Module</text>
<polygon fill="#80b1d3" stroke="transparent" points="213,-10 213,-30 233,-30 233,-10 213,-10"/>
<text text-anchor="start" x="236.78" y="-15.4" font-family="Times-12" font-size="14.00"> &#160;Bootstrap</text>
<polygon fill="#fdb462" stroke="transparent" points="310,-10 310,-30 330,-30 330,-10 310,-10"/>
<text text-anchor="start" x="333.67" y="-15.4" font-family="Times-12" font-size="14.00"> &#160;Providers</text>
<polygon fill="#fb8072" stroke="transparent" points="406,-10 406,-30 426,-30 426,-10 406,-10"/>
<text text-anchor="start" x="429.73" y="-15.4" font-family="Times-12" font-size="14.00"> &#160;Exports</text>
<g id="clust1" class="cluster">
<title>cluster_FavouritesModule</title>
<polygon fill="none" stroke="black" stroke-dasharray="1,5" points="90,-70 90,-268 406,-268 406,-70 90,-70"/>
</g>
<g id="clust4" class="cluster">
<title>cluster_FavouritesModule_exports</title>
<polygon fill="none" stroke="black" points="190,-208 190,-260 326,-260 326,-208 190,-208"/>
</g>
<g id="clust3" class="cluster">
<title>cluster_FavouritesModule_imports</title>
<polygon fill="none" stroke="black" points="284,-78 284,-130 398,-130 398,-78 284,-78"/>
</g>
<g id="clust6" class="cluster">
<title>cluster_FavouritesModule_providers</title>
<polygon fill="none" stroke="black" points="98,-78 98,-130 276,-130 276,-78 98,-78"/>
</g>
<!-- PrismaModule -->
<g id="node1" class="node">
<title>PrismaModule</title>
<polygon fill="#8dd3c7" stroke="black" points="390.43,-122 387.43,-126 366.43,-126 363.43,-122 291.57,-122 291.57,-86 390.43,-86 390.43,-122"/>
<text text-anchor="middle" x="341" y="-99.8" font-family="Times,serif" font-size="14.00">PrismaModule</text>
</g>
<!-- FavouritesModule -->
<g id="node2" class="node">
<title>FavouritesModule</title>
<polygon fill="#8dd3c7" stroke="black" points="317.15,-187 314.15,-191 293.15,-191 290.15,-187 198.85,-187 198.85,-151 317.15,-151 317.15,-187"/>
<text text-anchor="middle" x="258" y="-164.8" font-family="Times,serif" font-size="14.00">FavouritesModule</text>
</g>
<!-- PrismaModule&#45;&gt;FavouritesModule -->
<g id="edge1" class="edge">
<title>PrismaModule&#45;&gt;FavouritesModule</title>
<path fill="none" stroke="black" d="M304.55,-122.11C304.55,-122.11 304.55,-140.99 304.55,-140.99"/>
<polygon fill="black" stroke="black" points="301.05,-140.99 304.55,-150.99 308.05,-140.99 301.05,-140.99"/>
</g>
<!-- FavouritesService  -->
<g id="node3" class="node">
<title>FavouritesService </title>
<polygon fill="#fb8072" stroke="black" points="318.08,-252 197.92,-252 197.92,-216 318.08,-216 318.08,-252"/>
<text text-anchor="middle" x="258" y="-229.8" font-family="Times,serif" font-size="14.00">FavouritesService </text>
</g>
<!-- FavouritesModule&#45;&gt;FavouritesService  -->
<g id="edge2" class="edge">
<title>FavouritesModule&#45;&gt;FavouritesService </title>
<path fill="none" stroke="black" stroke-dasharray="5,2" d="M258,-187.11C258,-187.11 258,-205.99 258,-205.99"/>
<polygon fill="black" stroke="black" points="254.5,-205.99 258,-215.99 261.5,-205.99 254.5,-205.99"/>
</g>
<!-- FavouritesService -->
<g id="node4" class="node">
<title>FavouritesService</title>
<ellipse fill="#fdb462" stroke="black" cx="187" cy="-104" rx="80.51" ry="18"/>
<text text-anchor="middle" x="187" y="-99.8" font-family="Times,serif" font-size="14.00">FavouritesService</text>
</g>
<!-- FavouritesService&#45;&gt;FavouritesModule -->
<g id="edge3" class="edge">
<title>FavouritesService&#45;&gt;FavouritesModule</title>
<path fill="none" stroke="black" d="M233.22,-119.08C233.22,-119.08 233.22,-140.76 233.22,-140.76"/>
<polygon fill="black" stroke="black" points="229.72,-140.76 233.22,-150.76 236.72,-140.76 229.72,-140.76"/>
</g>
</g>
</svg>
