<?xml version="1.0" encoding="UTF-8" standalone="no"?>
<!DOCTYPE svg PUBLIC "-//W3C//DTD SVG 1.1//EN"
 "http://www.w3.org/Graphics/SVG/1.1/DTD/svg11.dtd">
<!-- Generated by graphviz version 2.47.0 (20210316.0004)
 -->
<!-- Title: dependencies Pages: 1 -->
<svg width="504pt" height="284pt"
 viewBox="0.00 0.00 504.00 284.00" xmlns="http://www.w3.org/2000/svg" xmlns:xlink="http://www.w3.org/1999/xlink">
<g id="graph0" class="graph" transform="scale(1 1) rotate(0) translate(4 280)">
<title>dependencies</title>
<polygon fill="white" stroke="transparent" points="-4,4 -4,-280 500,-280 500,4 -4,4"/>
<text text-anchor="start" x="227.01" y="-42.4" font-family="Times-12" font-weight="bold" font-size="14.00">Legend</text>
<polygon fill="#ffffb3" stroke="transparent" points="14,-10 14,-30 34,-30 34,-10 14,-10"/>
<text text-anchor="start" x="37.63" y="-15.4" font-family="Times-12" font-size="14.00"> &#160;Declarations</text>
<polygon fill="#8dd3c7" stroke="transparent" points="127,-10 127,-30 147,-30 147,-10 127,-10"/>
<text text-anchor="start" x="150.73" y="-15.4" font-family="Times-12" font-size="14.00"> &#160;Module</text>
<polygon fill="#80b1d3" stroke="transparent" points="213,-10 213,-30 233,-30 233,-10 213,-10"/>
<text text-anchor="start" x="236.78" y="-15.4" font-family="Times-12" font-size="14.00"> &#160;Bootstrap</text>
<polygon fill="#fdb462" stroke="transparent" points="310,-10 310,-30 330,-30 330,-10 310,-10"/>
<text text-anchor="start" x="333.67" y="-15.4" font-family="Times-12" font-size="14.00"> &#160;Providers</text>
<polygon fill="#fb8072" stroke="transparent" points="406,-10 406,-30 426,-30 426,-10 406,-10"/>
<text text-anchor="start" x="429.73" y="-15.4" font-family="Times-12" font-size="14.00"> &#160;Exports</text>
<g id="clust1" class="cluster">
<title>cluster_MapsModule</title>
<polygon fill="none" stroke="black" stroke-dasharray="1,5" points="110,-70 110,-268 386,-268 386,-70 110,-70"/>
</g>
<g id="clust6" class="cluster">
<title>cluster_MapsModule_providers</title>
<polygon fill="none" stroke="black" points="240,-78 240,-130 378,-130 378,-78 240,-78"/>
</g>
<g id="clust4" class="cluster">
<title>cluster_MapsModule_exports</title>
<polygon fill="none" stroke="black" points="188,-208 188,-260 296,-260 296,-208 188,-208"/>
</g>
<g id="clust3" class="cluster">
<title>cluster_MapsModule_imports</title>
<polygon fill="none" stroke="black" points="118,-78 118,-130 232,-130 232,-78 118,-78"/>
</g>
<!-- ConfigModule -->
<g id="node1" class="node">
<title>ConfigModule</title>
<polygon fill="#8dd3c7" stroke="black" points="224.44,-122 221.44,-126 200.44,-126 197.44,-122 125.56,-122 125.56,-86 224.44,-86 224.44,-122"/>
<text text-anchor="middle" x="175" y="-99.8" font-family="Times,serif" font-size="14.00">ConfigModule</text>
</g>
<!-- MapsModule -->
<g id="node2" class="node">
<title>MapsModule</title>
<polygon fill="#8dd3c7" stroke="black" points="287.15,-187 284.15,-191 263.15,-191 260.15,-187 196.85,-187 196.85,-151 287.15,-151 287.15,-187"/>
<text text-anchor="middle" x="242" y="-164.8" font-family="Times,serif" font-size="14.00">MapsModule</text>
</g>
<!-- ConfigModule&#45;&gt;MapsModule -->
<g id="edge1" class="edge">
<title>ConfigModule&#45;&gt;MapsModule</title>
<path fill="none" stroke="black" d="M210.45,-122.11C210.45,-122.11 210.45,-140.99 210.45,-140.99"/>
<polygon fill="black" stroke="black" points="206.95,-140.99 210.45,-150.99 213.95,-140.99 206.95,-140.99"/>
</g>
<!-- MapsService  -->
<g id="node3" class="node">
<title>MapsService </title>
<polygon fill="#fb8072" stroke="black" points="288.08,-252 195.92,-252 195.92,-216 288.08,-216 288.08,-252"/>
<text text-anchor="middle" x="242" y="-229.8" font-family="Times,serif" font-size="14.00">MapsService </text>
</g>
<!-- MapsModule&#45;&gt;MapsService  -->
<g id="edge2" class="edge">
<title>MapsModule&#45;&gt;MapsService </title>
<path fill="none" stroke="black" stroke-dasharray="5,2" d="M242,-187.11C242,-187.11 242,-205.99 242,-205.99"/>
<polygon fill="black" stroke="black" points="238.5,-205.99 242,-215.99 245.5,-205.99 238.5,-205.99"/>
</g>
<!-- MapsService -->
<g id="node4" class="node">
<title>MapsService</title>
<ellipse fill="#fdb462" stroke="black" cx="309" cy="-104" rx="61.39" ry="18"/>
<text text-anchor="middle" x="309" y="-99.8" font-family="Times,serif" font-size="14.00">MapsService</text>
</g>
<!-- MapsService&#45;&gt;MapsModule -->
<g id="edge3" class="edge">
<title>MapsService&#45;&gt;MapsModule</title>
<path fill="none" stroke="black" d="M267.44,-117.47C267.44,-117.47 267.44,-140.86 267.44,-140.86"/>
<polygon fill="black" stroke="black" points="263.94,-140.86 267.44,-150.86 270.94,-140.86 263.94,-140.86"/>
</g>
</g>
</svg>
