<?xml version="1.0" encoding="UTF-8" standalone="no"?>
<!DOCTYPE svg PUBLIC "-//W3C//DTD SVG 1.1//EN"
 "http://www.w3.org/Graphics/SVG/1.1/DTD/svg11.dtd">
<!-- Generated by graphviz version 2.47.0 (20210316.0004)
 -->
<!-- Title: dependencies Pages: 1 -->
<svg width="504pt" height="284pt"
 viewBox="0.00 0.00 504.00 284.00" xmlns="http://www.w3.org/2000/svg" xmlns:xlink="http://www.w3.org/1999/xlink">
<g id="graph0" class="graph" transform="scale(1 1) rotate(0) translate(4 280)">
<title>dependencies</title>
<polygon fill="white" stroke="transparent" points="-4,4 -4,-280 500,-280 500,4 -4,4"/>
<text text-anchor="start" x="227.01" y="-42.4" font-family="Times-12" font-weight="bold" font-size="14.00">Legend</text>
<polygon fill="#ffffb3" stroke="transparent" points="14,-10 14,-30 34,-30 34,-10 14,-10"/>
<text text-anchor="start" x="37.63" y="-15.4" font-family="Times-12" font-size="14.00"> &#160;Declarations</text>
<polygon fill="#8dd3c7" stroke="transparent" points="127,-10 127,-30 147,-30 147,-10 127,-10"/>
<text text-anchor="start" x="150.73" y="-15.4" font-family="Times-12" font-size="14.00"> &#160;Module</text>
<polygon fill="#80b1d3" stroke="transparent" points="213,-10 213,-30 233,-30 233,-10 213,-10"/>
<text text-anchor="start" x="236.78" y="-15.4" font-family="Times-12" font-size="14.00"> &#160;Bootstrap</text>
<polygon fill="#fdb462" stroke="transparent" points="310,-10 310,-30 330,-30 330,-10 310,-10"/>
<text text-anchor="start" x="333.67" y="-15.4" font-family="Times-12" font-size="14.00"> &#160;Providers</text>
<polygon fill="#fb8072" stroke="transparent" points="406,-10 406,-30 426,-30 426,-10 406,-10"/>
<text text-anchor="start" x="429.73" y="-15.4" font-family="Times-12" font-size="14.00"> &#160;Exports</text>
<g id="clust1" class="cluster">
<title>cluster_EmailTemplatesModule</title>
<polygon fill="none" stroke="black" stroke-dasharray="1,5" points="68,-70 68,-268 428,-268 428,-70 68,-70"/>
</g>
<g id="clust3" class="cluster">
<title>cluster_EmailTemplatesModule_imports</title>
<polygon fill="none" stroke="black" points="306,-78 306,-130 420,-130 420,-78 306,-78"/>
</g>
<g id="clust6" class="cluster">
<title>cluster_EmailTemplatesModule_providers</title>
<polygon fill="none" stroke="black" points="76,-78 76,-130 298,-130 298,-78 76,-78"/>
</g>
<g id="clust4" class="cluster">
<title>cluster_EmailTemplatesModule_exports</title>
<polygon fill="none" stroke="black" points="176,-208 176,-260 346,-260 346,-208 176,-208"/>
</g>
<!-- PrismaModule -->
<g id="node1" class="node">
<title>PrismaModule</title>
<polygon fill="#8dd3c7" stroke="black" points="412.43,-122 409.43,-126 388.43,-126 385.43,-122 313.57,-122 313.57,-86 412.43,-86 412.43,-122"/>
<text text-anchor="middle" x="363" y="-99.8" font-family="Times,serif" font-size="14.00">PrismaModule</text>
</g>
<!-- EmailTemplatesModule -->
<g id="node2" class="node">
<title>EmailTemplatesModule</title>
<polygon fill="#8dd3c7" stroke="black" points="336.8,-187 333.8,-191 312.8,-191 309.8,-187 185.2,-187 185.2,-151 336.8,-151 336.8,-187"/>
<text text-anchor="middle" x="261" y="-164.8" font-family="Times,serif" font-size="14.00">EmailTemplatesModule</text>
</g>
<!-- PrismaModule&#45;&gt;EmailTemplatesModule -->
<g id="edge1" class="edge">
<title>PrismaModule&#45;&gt;EmailTemplatesModule</title>
<path fill="none" stroke="black" d="M325.22,-122.11C325.22,-122.11 325.22,-140.99 325.22,-140.99"/>
<polygon fill="black" stroke="black" points="321.72,-140.99 325.22,-150.99 328.72,-140.99 321.72,-140.99"/>
</g>
<!-- EmailTemplatesService  -->
<g id="node3" class="node">
<title>EmailTemplatesService </title>
<polygon fill="#fb8072" stroke="black" points="337.73,-252 184.27,-252 184.27,-216 337.73,-216 337.73,-252"/>
<text text-anchor="middle" x="261" y="-229.8" font-family="Times,serif" font-size="14.00">EmailTemplatesService </text>
</g>
<!-- EmailTemplatesModule&#45;&gt;EmailTemplatesService  -->
<g id="edge2" class="edge">
<title>EmailTemplatesModule&#45;&gt;EmailTemplatesService </title>
<path fill="none" stroke="black" stroke-dasharray="5,2" d="M261,-187.11C261,-187.11 261,-205.99 261,-205.99"/>
<polygon fill="black" stroke="black" points="257.5,-205.99 261,-215.99 264.5,-205.99 257.5,-205.99"/>
</g>
<!-- EmailTemplatesService -->
<g id="node4" class="node">
<title>EmailTemplatesService</title>
<ellipse fill="#fdb462" stroke="black" cx="187" cy="-104" rx="103.06" ry="18"/>
<text text-anchor="middle" x="187" y="-99.8" font-family="Times,serif" font-size="14.00">EmailTemplatesService</text>
</g>
<!-- EmailTemplatesService&#45;&gt;EmailTemplatesModule -->
<g id="edge3" class="edge">
<title>EmailTemplatesService&#45;&gt;EmailTemplatesModule</title>
<path fill="none" stroke="black" d="M237.81,-119.73C237.81,-119.73 237.81,-140.65 237.81,-140.65"/>
<polygon fill="black" stroke="black" points="234.32,-140.65 237.81,-150.65 241.32,-140.65 234.32,-140.65"/>
</g>
</g>
</svg>
