<?xml version="1.0" encoding="UTF-8" standalone="no"?>
<!DOCTYPE svg PUBLIC "-//W3C//DTD SVG 1.1//EN"
 "http://www.w3.org/Graphics/SVG/1.1/DTD/svg11.dtd">
<!-- Generated by graphviz version 2.47.0 (20210316.0004)
 -->
<!-- Title: dependencies Pages: 1 -->
<svg width="504pt" height="211pt"
 viewBox="0.00 0.00 504.00 211.00" xmlns="http://www.w3.org/2000/svg" xmlns:xlink="http://www.w3.org/1999/xlink">
<g id="graph0" class="graph" transform="scale(1 1) rotate(0) translate(4 207)">
<title>dependencies</title>
<polygon fill="white" stroke="transparent" points="-4,4 -4,-207 500,-207 500,4 -4,4"/>
<text text-anchor="start" x="227.01" y="-42.4" font-family="Times-12" font-weight="bold" font-size="14.00">Legend</text>
<polygon fill="#ffffb3" stroke="transparent" points="14,-10 14,-30 34,-30 34,-10 14,-10"/>
<text text-anchor="start" x="37.63" y="-15.4" font-family="Times-12" font-size="14.00"> &#160;Declarations</text>
<polygon fill="#8dd3c7" stroke="transparent" points="127,-10 127,-30 147,-30 147,-10 127,-10"/>
<text text-anchor="start" x="150.73" y="-15.4" font-family="Times-12" font-size="14.00"> &#160;Module</text>
<polygon fill="#80b1d3" stroke="transparent" points="213,-10 213,-30 233,-30 233,-10 213,-10"/>
<text text-anchor="start" x="236.78" y="-15.4" font-family="Times-12" font-size="14.00"> &#160;Bootstrap</text>
<polygon fill="#fdb462" stroke="transparent" points="310,-10 310,-30 330,-30 330,-10 310,-10"/>
<text text-anchor="start" x="333.67" y="-15.4" font-family="Times-12" font-size="14.00"> &#160;Providers</text>
<polygon fill="#fb8072" stroke="transparent" points="406,-10 406,-30 426,-30 426,-10 406,-10"/>
<text text-anchor="start" x="429.73" y="-15.4" font-family="Times-12" font-size="14.00"> &#160;Exports</text>
<g id="clust1" class="cluster">
<title>cluster_SearchModule</title>
<polygon fill="none" stroke="black" stroke-dasharray="1,5" points="115.5,-70 115.5,-195 380.5,-195 380.5,-70 115.5,-70"/>
</g>
<g id="clust3" class="cluster">
<title>cluster_SearchModule_imports</title>
<polygon fill="none" stroke="black" points="123.5,-78 123.5,-130 372.5,-130 372.5,-78 123.5,-78"/>
</g>
<!-- ProductsModule -->
<g id="node1" class="node">
<title>ProductsModule</title>
<polygon fill="#8dd3c7" stroke="black" points="364.54,-122 361.54,-126 340.54,-126 337.54,-122 256.46,-122 256.46,-86 364.54,-86 364.54,-122"/>
<text text-anchor="middle" x="310.5" y="-99.8" font-family="Times,serif" font-size="14.00">ProductsModule</text>
</g>
<!-- SearchModule -->
<g id="node3" class="node">
<title>SearchModule</title>
<polygon fill="#8dd3c7" stroke="black" points="296.14,-187 293.14,-191 272.14,-191 269.14,-187 198.86,-187 198.86,-151 296.14,-151 296.14,-187"/>
<text text-anchor="middle" x="247.5" y="-164.8" font-family="Times,serif" font-size="14.00">SearchModule</text>
</g>
<!-- ProductsModule&#45;&gt;SearchModule -->
<g id="edge1" class="edge">
<title>ProductsModule&#45;&gt;SearchModule</title>
<path fill="none" stroke="black" d="M276.27,-122.11C276.27,-122.11 276.27,-140.99 276.27,-140.99"/>
<polygon fill="black" stroke="black" points="272.77,-140.99 276.27,-150.99 279.77,-140.99 272.77,-140.99"/>
</g>
<!-- VendorsModule -->
<g id="node2" class="node">
<title>VendorsModule</title>
<polygon fill="#8dd3c7" stroke="black" points="237.98,-122 234.98,-126 213.98,-126 210.98,-122 131.02,-122 131.02,-86 237.98,-86 237.98,-122"/>
<text text-anchor="middle" x="184.5" y="-99.8" font-family="Times,serif" font-size="14.00">VendorsModule</text>
</g>
<!-- VendorsModule&#45;&gt;SearchModule -->
<g id="edge2" class="edge">
<title>VendorsModule&#45;&gt;SearchModule</title>
<path fill="none" stroke="black" d="M218.33,-122.11C218.33,-122.11 218.33,-140.99 218.33,-140.99"/>
<polygon fill="black" stroke="black" points="214.83,-140.99 218.33,-150.99 221.83,-140.99 214.83,-140.99"/>
</g>
</g>
</svg>
