<?xml version="1.0" encoding="UTF-8" standalone="no"?>
<!DOCTYPE svg PUBLIC "-//W3C//DTD SVG 1.1//EN"
 "http://www.w3.org/Graphics/SVG/1.1/DTD/svg11.dtd">
<!-- Generated by graphviz version 2.47.0 (20210316.0004)
 -->
<!-- Title: dependencies Pages: 1 -->
<svg width="504pt" height="284pt"
 viewBox="0.00 0.00 504.00 284.00" xmlns="http://www.w3.org/2000/svg" xmlns:xlink="http://www.w3.org/1999/xlink">
<g id="graph0" class="graph" transform="scale(1 1) rotate(0) translate(4 280)">
<title>dependencies</title>
<polygon fill="white" stroke="transparent" points="-4,4 -4,-280 500,-280 500,4 -4,4"/>
<text text-anchor="start" x="227.01" y="-42.4" font-family="Times-12" font-weight="bold" font-size="14.00">Legend</text>
<polygon fill="#ffffb3" stroke="transparent" points="14,-10 14,-30 34,-30 34,-10 14,-10"/>
<text text-anchor="start" x="37.63" y="-15.4" font-family="Times-12" font-size="14.00"> &#160;Declarations</text>
<polygon fill="#8dd3c7" stroke="transparent" points="127,-10 127,-30 147,-30 147,-10 127,-10"/>
<text text-anchor="start" x="150.73" y="-15.4" font-family="Times-12" font-size="14.00"> &#160;Module</text>
<polygon fill="#80b1d3" stroke="transparent" points="213,-10 213,-30 233,-30 233,-10 213,-10"/>
<text text-anchor="start" x="236.78" y="-15.4" font-family="Times-12" font-size="14.00"> &#160;Bootstrap</text>
<polygon fill="#fdb462" stroke="transparent" points="310,-10 310,-30 330,-30 330,-10 310,-10"/>
<text text-anchor="start" x="333.67" y="-15.4" font-family="Times-12" font-size="14.00"> &#160;Providers</text>
<polygon fill="#fb8072" stroke="transparent" points="406,-10 406,-30 426,-30 426,-10 406,-10"/>
<text text-anchor="start" x="429.73" y="-15.4" font-family="Times-12" font-size="14.00"> &#160;Exports</text>
<g id="clust1" class="cluster">
<title>cluster_StoriesModule</title>
<polygon fill="none" stroke="black" stroke-dasharray="1,5" points="41.5,-70 41.5,-268 454.5,-268 454.5,-70 41.5,-70"/>
</g>
<g id="clust3" class="cluster">
<title>cluster_StoriesModule_imports</title>
<polygon fill="none" stroke="black" points="207.5,-78 207.5,-130 446.5,-130 446.5,-78 207.5,-78"/>
</g>
<g id="clust4" class="cluster">
<title>cluster_StoriesModule_exports</title>
<polygon fill="none" stroke="black" points="210.5,-208 210.5,-260 326.5,-260 326.5,-208 210.5,-208"/>
</g>
<g id="clust6" class="cluster">
<title>cluster_StoriesModule_providers</title>
<polygon fill="none" stroke="black" points="49.5,-78 49.5,-130 199.5,-130 199.5,-78 49.5,-78"/>
</g>
<!-- PrismaModule -->
<g id="node1" class="node">
<title>PrismaModule</title>
<polygon fill="#8dd3c7" stroke="black" points="438.93,-122 435.93,-126 414.93,-126 411.93,-122 340.07,-122 340.07,-86 438.93,-86 438.93,-122"/>
<text text-anchor="middle" x="389.5" y="-99.8" font-family="Times,serif" font-size="14.00">PrismaModule</text>
</g>
<!-- StoriesModule -->
<g id="node3" class="node">
<title>StoriesModule</title>
<polygon fill="#8dd3c7" stroke="black" points="317.93,-187 314.93,-191 293.93,-191 290.93,-187 219.07,-187 219.07,-151 317.93,-151 317.93,-187"/>
<text text-anchor="middle" x="268.5" y="-164.8" font-family="Times,serif" font-size="14.00">StoriesModule</text>
</g>
<!-- PrismaModule&#45;&gt;StoriesModule -->
<g id="edge1" class="edge">
<title>PrismaModule&#45;&gt;StoriesModule</title>
<path fill="none" stroke="black" d="M389.5,-122.11C389.5,-141.34 389.5,-169 389.5,-169 389.5,-169 328.06,-169 328.06,-169"/>
<polygon fill="black" stroke="black" points="328.06,-165.5 318.06,-169 328.06,-172.5 328.06,-165.5"/>
</g>
<!-- VendorsModule -->
<g id="node2" class="node">
<title>VendorsModule</title>
<polygon fill="#8dd3c7" stroke="black" points="321.98,-122 318.98,-126 297.98,-126 294.98,-122 215.02,-122 215.02,-86 321.98,-86 321.98,-122"/>
<text text-anchor="middle" x="268.5" y="-99.8" font-family="Times,serif" font-size="14.00">VendorsModule</text>
</g>
<!-- VendorsModule&#45;&gt;StoriesModule -->
<g id="edge2" class="edge">
<title>VendorsModule&#45;&gt;StoriesModule</title>
<path fill="none" stroke="black" d="M268.5,-122.11C268.5,-122.11 268.5,-140.99 268.5,-140.99"/>
<polygon fill="black" stroke="black" points="265,-140.99 268.5,-150.99 272,-140.99 265,-140.99"/>
</g>
<!-- StoriesService  -->
<g id="node4" class="node">
<title>StoriesService </title>
<polygon fill="#fb8072" stroke="black" points="318.86,-252 218.14,-252 218.14,-216 318.86,-216 318.86,-252"/>
<text text-anchor="middle" x="268.5" y="-229.8" font-family="Times,serif" font-size="14.00">StoriesService </text>
</g>
<!-- StoriesModule&#45;&gt;StoriesService  -->
<g id="edge3" class="edge">
<title>StoriesModule&#45;&gt;StoriesService </title>
<path fill="none" stroke="black" stroke-dasharray="5,2" d="M268.5,-187.11C268.5,-187.11 268.5,-205.99 268.5,-205.99"/>
<polygon fill="black" stroke="black" points="265,-205.99 268.5,-215.99 272,-205.99 265,-205.99"/>
</g>
<!-- StoriesService -->
<g id="node5" class="node">
<title>StoriesService</title>
<ellipse fill="#fdb462" stroke="black" cx="124.5" cy="-104" rx="66.63" ry="18"/>
<text text-anchor="middle" x="124.5" y="-99.8" font-family="Times,serif" font-size="14.00">StoriesService</text>
</g>
<!-- StoriesService&#45;&gt;StoriesModule -->
<g id="edge4" class="edge">
<title>StoriesService&#45;&gt;StoriesModule</title>
<path fill="none" stroke="black" d="M124.5,-122.11C124.5,-141.34 124.5,-169 124.5,-169 124.5,-169 208.94,-169 208.94,-169"/>
<polygon fill="black" stroke="black" points="208.94,-172.5 218.94,-169 208.94,-165.5 208.94,-172.5"/>
</g>
</g>
</svg>
