<?xml version="1.0" encoding="UTF-8" standalone="no"?>
<!DOCTYPE svg PUBLIC "-//W3C//DTD SVG 1.1//EN"
 "http://www.w3.org/Graphics/SVG/1.1/DTD/svg11.dtd">
<!-- Generated by graphviz version 2.47.0 (20210316.0004)
 -->
<!-- Title: dependencies Pages: 1 -->
<svg width="694pt" height="284pt"
 viewBox="0.00 0.00 694.00 284.00" xmlns="http://www.w3.org/2000/svg" xmlns:xlink="http://www.w3.org/1999/xlink">
<g id="graph0" class="graph" transform="scale(1 1) rotate(0) translate(4 280)">
<title>dependencies</title>
<polygon fill="white" stroke="transparent" points="-4,4 -4,-280 690,-280 690,4 -4,4"/>
<text text-anchor="start" x="322.01" y="-42.4" font-family="Times-12" font-weight="bold" font-size="14.00">Legend</text>
<polygon fill="#ffffb3" stroke="transparent" points="109,-10 109,-30 129,-30 129,-10 109,-10"/>
<text text-anchor="start" x="132.63" y="-15.4" font-family="Times-12" font-size="14.00"> &#160;Declarations</text>
<polygon fill="#8dd3c7" stroke="transparent" points="222,-10 222,-30 242,-30 242,-10 222,-10"/>
<text text-anchor="start" x="245.73" y="-15.4" font-family="Times-12" font-size="14.00"> &#160;Module</text>
<polygon fill="#80b1d3" stroke="transparent" points="308,-10 308,-30 328,-30 328,-10 308,-10"/>
<text text-anchor="start" x="331.78" y="-15.4" font-family="Times-12" font-size="14.00"> &#160;Bootstrap</text>
<polygon fill="#fdb462" stroke="transparent" points="405,-10 405,-30 425,-30 425,-10 405,-10"/>
<text text-anchor="start" x="428.67" y="-15.4" font-family="Times-12" font-size="14.00"> &#160;Providers</text>
<polygon fill="#fb8072" stroke="transparent" points="501,-10 501,-30 521,-30 521,-10 501,-10"/>
<text text-anchor="start" x="524.73" y="-15.4" font-family="Times-12" font-size="14.00"> &#160;Exports</text>
<g id="clust1" class="cluster">
<title>cluster_OrdersModule</title>
<polygon fill="none" stroke="black" stroke-dasharray="1,5" points="8,-70 8,-268 678,-268 678,-70 8,-70"/>
</g>
<g id="clust4" class="cluster">
<title>cluster_OrdersModule_exports</title>
<polygon fill="none" stroke="black" points="230,-208 230,-260 471,-260 471,-208 230,-208"/>
</g>
<g id="clust3" class="cluster">
<title>cluster_OrdersModule_imports</title>
<polygon fill="none" stroke="black" points="172,-78 172,-130 670,-130 670,-78 172,-78"/>
</g>
<g id="clust6" class="cluster">
<title>cluster_OrdersModule_providers</title>
<polygon fill="none" stroke="black" points="16,-78 16,-130 164,-130 164,-78 16,-78"/>
</g>
<!-- CashbackModule -->
<g id="node1" class="node">
<title>CashbackModule</title>
<polygon fill="#8dd3c7" stroke="black" points="661.97,-122 658.97,-126 637.97,-126 634.97,-122 548.03,-122 548.03,-86 661.97,-86 661.97,-122"/>
<text text-anchor="middle" x="605" y="-99.8" font-family="Times,serif" font-size="14.00">CashbackModule</text>
</g>
<!-- OrdersModule -->
<g id="node5" class="node">
<title>OrdersModule</title>
<polygon fill="#8dd3c7" stroke="black" points="396.64,-187 393.64,-191 372.64,-191 369.64,-187 299.36,-187 299.36,-151 396.64,-151 396.64,-187"/>
<text text-anchor="middle" x="348" y="-164.8" font-family="Times,serif" font-size="14.00">OrdersModule</text>
</g>
<!-- CashbackModule&#45;&gt;OrdersModule -->
<g id="edge1" class="edge">
<title>CashbackModule&#45;&gt;OrdersModule</title>
<path fill="none" stroke="black" d="M605,-122.28C605,-143.32 605,-175 605,-175 605,-175 406.64,-175 406.64,-175"/>
<polygon fill="black" stroke="black" points="406.64,-171.5 396.64,-175 406.64,-178.5 406.64,-171.5"/>
</g>
<!-- CouponsModule -->
<g id="node2" class="node">
<title>CouponsModule</title>
<polygon fill="#8dd3c7" stroke="black" points="529.83,-122 526.83,-126 505.83,-126 502.83,-122 420.17,-122 420.17,-86 529.83,-86 529.83,-122"/>
<text text-anchor="middle" x="475" y="-99.8" font-family="Times,serif" font-size="14.00">CouponsModule</text>
</g>
<!-- CouponsModule&#45;&gt;OrdersModule -->
<g id="edge2" class="edge">
<title>CouponsModule&#45;&gt;OrdersModule</title>
<path fill="none" stroke="black" d="M441.5,-122.02C441.5,-139.37 441.5,-163 441.5,-163 441.5,-163 406.67,-163 406.67,-163"/>
<polygon fill="black" stroke="black" points="406.67,-159.5 396.67,-163 406.67,-166.5 406.67,-159.5"/>
</g>
<!-- ReviewsModule -->
<g id="node3" class="node">
<title>ReviewsModule</title>
<polygon fill="#8dd3c7" stroke="black" points="401.76,-122 398.76,-126 377.76,-126 374.76,-122 294.24,-122 294.24,-86 401.76,-86 401.76,-122"/>
<text text-anchor="middle" x="348" y="-99.8" font-family="Times,serif" font-size="14.00">ReviewsModule</text>
</g>
<!-- ReviewsModule&#45;&gt;OrdersModule -->
<g id="edge3" class="edge">
<title>ReviewsModule&#45;&gt;OrdersModule</title>
<path fill="none" stroke="black" d="M348,-122.11C348,-122.11 348,-140.99 348,-140.99"/>
<polygon fill="black" stroke="black" points="344.5,-140.99 348,-150.99 351.5,-140.99 344.5,-140.99"/>
</g>
<!-- WalletModule -->
<g id="node4" class="node">
<title>WalletModule</title>
<polygon fill="#8dd3c7" stroke="black" points="276.37,-122 273.37,-126 252.37,-126 249.37,-122 179.63,-122 179.63,-86 276.37,-86 276.37,-122"/>
<text text-anchor="middle" x="228" y="-99.8" font-family="Times,serif" font-size="14.00">WalletModule</text>
</g>
<!-- WalletModule&#45;&gt;OrdersModule -->
<g id="edge4" class="edge">
<title>WalletModule&#45;&gt;OrdersModule</title>
<path fill="none" stroke="black" d="M257.33,-122.02C257.33,-139.37 257.33,-163 257.33,-163 257.33,-163 289.21,-163 289.21,-163"/>
<polygon fill="black" stroke="black" points="289.21,-166.5 299.21,-163 289.21,-159.5 289.21,-166.5"/>
</g>
<!-- OrdersGateway  -->
<g id="node6" class="node">
<title>OrdersGateway </title>
<polygon fill="#fb8072" stroke="black" points="462.84,-252 355.16,-252 355.16,-216 462.84,-216 462.84,-252"/>
<text text-anchor="middle" x="409" y="-229.8" font-family="Times,serif" font-size="14.00">OrdersGateway </text>
</g>
<!-- OrdersModule&#45;&gt;OrdersGateway  -->
<g id="edge5" class="edge">
<title>OrdersModule&#45;&gt;OrdersGateway </title>
<path fill="none" stroke="black" stroke-dasharray="5,2" d="M376.08,-187.11C376.08,-187.11 376.08,-205.99 376.08,-205.99"/>
<polygon fill="black" stroke="black" points="372.58,-205.99 376.08,-215.99 379.58,-205.99 372.58,-205.99"/>
</g>
<!-- OrdersService  -->
<g id="node7" class="node">
<title>OrdersService </title>
<polygon fill="#fb8072" stroke="black" points="337.57,-252 238.43,-252 238.43,-216 337.57,-216 337.57,-252"/>
<text text-anchor="middle" x="288" y="-229.8" font-family="Times,serif" font-size="14.00">OrdersService </text>
</g>
<!-- OrdersModule&#45;&gt;OrdersService  -->
<g id="edge6" class="edge">
<title>OrdersModule&#45;&gt;OrdersService </title>
<path fill="none" stroke="black" stroke-dasharray="5,2" d="M318.48,-187.11C318.48,-187.11 318.48,-205.99 318.48,-205.99"/>
<polygon fill="black" stroke="black" points="314.98,-205.99 318.48,-215.99 321.98,-205.99 314.98,-205.99"/>
</g>
<!-- OrdersService -->
<g id="node8" class="node">
<title>OrdersService</title>
<ellipse fill="#fdb462" stroke="black" cx="90" cy="-104" rx="66.03" ry="18"/>
<text text-anchor="middle" x="90" y="-99.8" font-family="Times,serif" font-size="14.00">OrdersService</text>
</g>
<!-- OrdersService&#45;&gt;OrdersModule -->
<g id="edge7" class="edge">
<title>OrdersService&#45;&gt;OrdersModule</title>
<path fill="none" stroke="black" d="M90,-122.28C90,-143.32 90,-175 90,-175 90,-175 289.17,-175 289.17,-175"/>
<polygon fill="black" stroke="black" points="289.17,-178.5 299.17,-175 289.17,-171.5 289.17,-178.5"/>
</g>
</g>
</svg>
