<?xml version="1.0" encoding="UTF-8" standalone="no"?>
<!DOCTYPE svg PUBLIC "-//W3C//DTD SVG 1.1//EN"
 "http://www.w3.org/Graphics/SVG/1.1/DTD/svg11.dtd">
<!-- Generated by graphviz version 2.47.0 (20210316.0004)
 -->
<!-- Title: dependencies Pages: 1 -->
<svg width="504pt" height="284pt"
 viewBox="0.00 0.00 504.00 284.00" xmlns="http://www.w3.org/2000/svg" xmlns:xlink="http://www.w3.org/1999/xlink">
<g id="graph0" class="graph" transform="scale(1 1) rotate(0) translate(4 280)">
<title>dependencies</title>
<polygon fill="white" stroke="transparent" points="-4,4 -4,-280 500,-280 500,4 -4,4"/>
<text text-anchor="start" x="227.01" y="-42.4" font-family="Times-12" font-weight="bold" font-size="14.00">Legend</text>
<polygon fill="#ffffb3" stroke="transparent" points="14,-10 14,-30 34,-30 34,-10 14,-10"/>
<text text-anchor="start" x="37.63" y="-15.4" font-family="Times-12" font-size="14.00"> &#160;Declarations</text>
<polygon fill="#8dd3c7" stroke="transparent" points="127,-10 127,-30 147,-30 147,-10 127,-10"/>
<text text-anchor="start" x="150.73" y="-15.4" font-family="Times-12" font-size="14.00"> &#160;Module</text>
<polygon fill="#80b1d3" stroke="transparent" points="213,-10 213,-30 233,-30 233,-10 213,-10"/>
<text text-anchor="start" x="236.78" y="-15.4" font-family="Times-12" font-size="14.00"> &#160;Bootstrap</text>
<polygon fill="#fdb462" stroke="transparent" points="310,-10 310,-30 330,-30 330,-10 310,-10"/>
<text text-anchor="start" x="333.67" y="-15.4" font-family="Times-12" font-size="14.00"> &#160;Providers</text>
<polygon fill="#fb8072" stroke="transparent" points="406,-10 406,-30 426,-30 426,-10 406,-10"/>
<text text-anchor="start" x="429.73" y="-15.4" font-family="Times-12" font-size="14.00"> &#160;Exports</text>
<g id="clust1" class="cluster">
<title>cluster_ChatModule</title>
<polygon fill="none" stroke="black" stroke-dasharray="1,5" points="131,-70 131,-268 365,-268 365,-70 131,-70"/>
</g>
<g id="clust6" class="cluster">
<title>cluster_ChatModule_providers</title>
<polygon fill="none" stroke="black" points="182,-78 182,-130 314,-130 314,-78 182,-78"/>
</g>
<g id="clust4" class="cluster">
<title>cluster_ChatModule_exports</title>
<polygon fill="none" stroke="black" points="139,-208 139,-260 357,-260 357,-208 139,-208"/>
</g>
<!-- ChatGateway  -->
<g id="node1" class="node">
<title>ChatGateway </title>
<polygon fill="#fb8072" stroke="black" points="348.69,-252 253.31,-252 253.31,-216 348.69,-216 348.69,-252"/>
<text text-anchor="middle" x="301" y="-229.8" font-family="Times,serif" font-size="14.00">ChatGateway </text>
</g>
<!-- ChatService  -->
<g id="node2" class="node">
<title>ChatService </title>
<polygon fill="#fb8072" stroke="black" points="234.92,-252 147.08,-252 147.08,-216 234.92,-216 234.92,-252"/>
<text text-anchor="middle" x="191" y="-229.8" font-family="Times,serif" font-size="14.00">ChatService </text>
</g>
<!-- ChatModule -->
<g id="node3" class="node">
<title>ChatModule</title>
<polygon fill="#8dd3c7" stroke="black" points="290.99,-187 287.99,-191 266.99,-191 263.99,-187 205.01,-187 205.01,-151 290.99,-151 290.99,-187"/>
<text text-anchor="middle" x="248" y="-164.8" font-family="Times,serif" font-size="14.00">ChatModule</text>
</g>
<!-- ChatModule&#45;&gt;ChatGateway  -->
<g id="edge1" class="edge">
<title>ChatModule&#45;&gt;ChatGateway </title>
<path fill="none" stroke="black" stroke-dasharray="5,2" d="M272.08,-187.11C272.08,-187.11 272.08,-205.99 272.08,-205.99"/>
<polygon fill="black" stroke="black" points="268.58,-205.99 272.08,-215.99 275.58,-205.99 268.58,-205.99"/>
</g>
<!-- ChatModule&#45;&gt;ChatService  -->
<g id="edge2" class="edge">
<title>ChatModule&#45;&gt;ChatService </title>
<path fill="none" stroke="black" stroke-dasharray="5,2" d="M219.98,-187.11C219.98,-187.11 219.98,-205.99 219.98,-205.99"/>
<polygon fill="black" stroke="black" points="216.48,-205.99 219.98,-215.99 223.48,-205.99 216.48,-205.99"/>
</g>
<!-- ChatService -->
<g id="node4" class="node">
<title>ChatService</title>
<ellipse fill="#fdb462" stroke="black" cx="248" cy="-104" rx="58.46" ry="18"/>
<text text-anchor="middle" x="248" y="-99.8" font-family="Times,serif" font-size="14.00">ChatService</text>
</g>
<!-- ChatService&#45;&gt;ChatModule -->
<g id="edge3" class="edge">
<title>ChatService&#45;&gt;ChatModule</title>
<path fill="none" stroke="black" d="M248,-122.11C248,-122.11 248,-140.99 248,-140.99"/>
<polygon fill="black" stroke="black" points="244.5,-140.99 248,-150.99 251.5,-140.99 244.5,-140.99"/>
</g>
</g>
</svg>
