<?xml version="1.0" encoding="UTF-8" standalone="no"?>
<!DOCTYPE svg PUBLIC "-//W3C//DTD SVG 1.1//EN"
 "http://www.w3.org/Graphics/SVG/1.1/DTD/svg11.dtd">
<!-- Generated by graphviz version 2.47.0 (20210316.0004)
 -->
<!-- Title: dependencies Pages: 1 -->
<svg width="5585pt" height="211pt"
 viewBox="0.00 0.00 5585.00 211.00" xmlns="http://www.w3.org/2000/svg" xmlns:xlink="http://www.w3.org/1999/xlink">
<g id="graph0" class="graph" transform="scale(1 1) rotate(0) translate(4 207)">
<title>dependencies</title>
<polygon fill="white" stroke="transparent" points="-4,4 -4,-207 5581,-207 5581,4 -4,4"/>
<text text-anchor="start" x="2767.51" y="-42.4" font-family="Times-12" font-weight="bold" font-size="14.00">Legend</text>
<polygon fill="#ffffb3" stroke="transparent" points="2554.5,-10 2554.5,-30 2574.5,-30 2574.5,-10 2554.5,-10"/>
<text text-anchor="start" x="2578.13" y="-15.4" font-family="Times-12" font-size="14.00"> &#160;Declarations</text>
<polygon fill="#8dd3c7" stroke="transparent" points="2667.5,-10 2667.5,-30 2687.5,-30 2687.5,-10 2667.5,-10"/>
<text text-anchor="start" x="2691.23" y="-15.4" font-family="Times-12" font-size="14.00"> &#160;Module</text>
<polygon fill="#80b1d3" stroke="transparent" points="2753.5,-10 2753.5,-30 2773.5,-30 2773.5,-10 2753.5,-10"/>
<text text-anchor="start" x="2777.28" y="-15.4" font-family="Times-12" font-size="14.00"> &#160;Bootstrap</text>
<polygon fill="#fdb462" stroke="transparent" points="2850.5,-10 2850.5,-30 2870.5,-30 2870.5,-10 2850.5,-10"/>
<text text-anchor="start" x="2874.17" y="-15.4" font-family="Times-12" font-size="14.00"> &#160;Providers</text>
<polygon fill="#fb8072" stroke="transparent" points="2946.5,-10 2946.5,-30 2966.5,-30 2966.5,-10 2946.5,-10"/>
<text text-anchor="start" x="2970.23" y="-15.4" font-family="Times-12" font-size="14.00"> &#160;Exports</text>
<g id="clust1" class="cluster">
<title>cluster_AppModule</title>
<polygon fill="none" stroke="black" stroke-dasharray="1,5" points="8,-70 8,-195 5569,-195 5569,-70 8,-70"/>
</g>
<g id="clust3" class="cluster">
<title>cluster_AppModule_imports</title>
<polygon fill="none" stroke="black" points="154,-78 154,-130 5561,-130 5561,-78 154,-78"/>
</g>
<g id="clust6" class="cluster">
<title>cluster_AppModule_providers</title>
<polygon fill="none" stroke="black" points="16,-78 16,-130 146,-130 146,-78 16,-78"/>
</g>
<!-- AddressesModule -->
<g id="node1" class="node">
<title>AddressesModule</title>
<polygon fill="#8dd3c7" stroke="black" points="5552.58,-122 5549.58,-126 5528.58,-126 5525.58,-122 5435.42,-122 5435.42,-86 5552.58,-86 5552.58,-122"/>
<text text-anchor="middle" x="5494" y="-99.8" font-family="Times,serif" font-size="14.00">AddressesModule</text>
</g>
<!-- AppModule -->
<g id="node43" class="node">
<title>AppModule</title>
<polygon fill="#8dd3c7" stroke="black" points="2774.66,-187 2771.66,-191 2750.66,-191 2747.66,-187 2691.34,-187 2691.34,-151 2774.66,-151 2774.66,-187"/>
<text text-anchor="middle" x="2733" y="-164.8" font-family="Times,serif" font-size="14.00">AppModule</text>
</g>
<!-- AddressesModule&#45;&gt;AppModule -->
<g id="edge1" class="edge">
<title>AddressesModule&#45;&gt;AppModule</title>
<path fill="none" stroke="black" d="M5494,-122.2C5494,-146.36 5494,-186 5494,-186 5494,-186 2784.72,-186 2784.72,-186"/>
<polygon fill="black" stroke="black" points="2784.72,-182.5 2774.72,-186 2784.72,-189.5 2784.72,-182.5"/>
</g>
<!-- AdminModule -->
<g id="node2" class="node">
<title>AdminModule</title>
<polygon fill="#8dd3c7" stroke="black" points="5417.44,-122 5414.44,-126 5393.44,-126 5390.44,-122 5318.56,-122 5318.56,-86 5417.44,-86 5417.44,-122"/>
<text text-anchor="middle" x="5368" y="-99.8" font-family="Times,serif" font-size="14.00">AdminModule</text>
</g>
<!-- AdminModule&#45;&gt;AppModule -->
<g id="edge2" class="edge">
<title>AdminModule&#45;&gt;AppModule</title>
<path fill="none" stroke="black" d="M5368,-122.15C5368,-145.76 5368,-184 5368,-184 5368,-184 2784.92,-184 2784.92,-184"/>
<polygon fill="black" stroke="black" points="2784.92,-180.5 2774.92,-184 2784.92,-187.5 2784.92,-180.5"/>
</g>
<!-- AdvertisementsModule -->
<g id="node3" class="node">
<title>AdvertisementsModule</title>
<polygon fill="#8dd3c7" stroke="black" points="5300.91,-122 5297.91,-126 5276.91,-126 5273.91,-122 5153.09,-122 5153.09,-86 5300.91,-86 5300.91,-122"/>
<text text-anchor="middle" x="5227" y="-99.8" font-family="Times,serif" font-size="14.00">AdvertisementsModule</text>
</g>
<!-- AdvertisementsModule&#45;&gt;AppModule -->
<g id="edge3" class="edge">
<title>AdvertisementsModule&#45;&gt;AppModule</title>
<path fill="none" stroke="black" d="M5227,-122.32C5227,-145.66 5227,-183 5227,-183 5227,-183 2784.72,-183 2784.72,-183"/>
<polygon fill="black" stroke="black" points="2784.72,-179.5 2774.72,-183 2784.72,-186.5 2784.72,-179.5"/>
</g>
<!-- AttributesModule -->
<g id="node4" class="node">
<title>AttributesModule</title>
<polygon fill="#8dd3c7" stroke="black" points="5135.54,-122 5132.54,-126 5111.54,-126 5108.54,-122 5020.46,-122 5020.46,-86 5135.54,-86 5135.54,-122"/>
<text text-anchor="middle" x="5078" y="-99.8" font-family="Times,serif" font-size="14.00">AttributesModule</text>
</g>
<!-- AttributesModule&#45;&gt;AppModule -->
<g id="edge4" class="edge">
<title>AttributesModule&#45;&gt;AppModule</title>
<path fill="none" stroke="black" d="M5078,-122.25C5078,-145.02 5078,-181 5078,-181 5078,-181 2784.7,-181 2784.7,-181"/>
<polygon fill="black" stroke="black" points="2784.7,-177.5 2774.7,-181 2784.7,-184.5 2784.7,-177.5"/>
</g>
<!-- AuthModule -->
<g id="node5" class="node">
<title>AuthModule</title>
<polygon fill="#8dd3c7" stroke="black" points="5001.55,-122 4998.55,-126 4977.55,-126 4974.55,-122 4914.45,-122 4914.45,-86 5001.55,-86 5001.55,-122"/>
<text text-anchor="middle" x="4958" y="-99.8" font-family="Times,serif" font-size="14.00">AuthModule</text>
</g>
<!-- AuthModule&#45;&gt;AppModule -->
<g id="edge5" class="edge">
<title>AuthModule&#45;&gt;AppModule</title>
<path fill="none" stroke="black" d="M4958,-122.16C4958,-144.35 4958,-179 4958,-179 4958,-179 2784.97,-179 2784.97,-179"/>
<polygon fill="black" stroke="black" points="2784.97,-175.5 2774.97,-179 2784.97,-182.5 2784.97,-175.5"/>
</g>
<!-- BannersModule -->
<g id="node6" class="node">
<title>BannersModule</title>
<polygon fill="#8dd3c7" stroke="black" points="4896.92,-122 4893.92,-126 4872.92,-126 4869.92,-122 4791.08,-122 4791.08,-86 4896.92,-86 4896.92,-122"/>
<text text-anchor="middle" x="4844" y="-99.8" font-family="Times,serif" font-size="14.00">BannersModule</text>
</g>
<!-- BannersModule&#45;&gt;AppModule -->
<g id="edge6" class="edge">
<title>BannersModule&#45;&gt;AppModule</title>
<path fill="none" stroke="black" d="M4844,-122.29C4844,-144.21 4844,-178 4844,-178 4844,-178 2784.69,-178 2784.69,-178"/>
<polygon fill="black" stroke="black" points="2784.69,-174.5 2774.69,-178 2784.69,-181.5 2784.69,-174.5"/>
</g>
<!-- CashbackModule -->
<g id="node7" class="node">
<title>CashbackModule</title>
<polygon fill="#8dd3c7" stroke="black" points="4772.97,-122 4769.97,-126 4748.97,-126 4745.97,-122 4659.03,-122 4659.03,-86 4772.97,-86 4772.97,-122"/>
<text text-anchor="middle" x="4716" y="-99.8" font-family="Times,serif" font-size="14.00">CashbackModule</text>
</g>
<!-- CashbackModule&#45;&gt;AppModule -->
<g id="edge7" class="edge">
<title>CashbackModule&#45;&gt;AppModule</title>
<path fill="none" stroke="black" d="M4716,-122.17C4716,-143.5 4716,-176 4716,-176 4716,-176 2784.88,-176 2784.88,-176"/>
<polygon fill="black" stroke="black" points="2784.88,-172.5 2774.88,-176 2784.88,-179.5 2784.88,-172.5"/>
</g>
<!-- CategoriesModule -->
<g id="node8" class="node">
<title>CategoriesModule</title>
<polygon fill="#8dd3c7" stroke="black" points="4640.92,-122 4637.92,-126 4616.92,-126 4613.92,-122 4521.08,-122 4521.08,-86 4640.92,-86 4640.92,-122"/>
<text text-anchor="middle" x="4581" y="-99.8" font-family="Times,serif" font-size="14.00">CategoriesModule</text>
</g>
<!-- CategoriesModule&#45;&gt;AppModule -->
<g id="edge8" class="edge">
<title>CategoriesModule&#45;&gt;AppModule</title>
<path fill="none" stroke="black" d="M4581,-122.03C4581,-142.77 4581,-174 4581,-174 4581,-174 2785.07,-174 2785.07,-174"/>
<polygon fill="black" stroke="black" points="2785.07,-170.5 2775.07,-174 2785.07,-177.5 2785.07,-170.5"/>
</g>
<!-- ChatModule -->
<g id="node9" class="node">
<title>ChatModule</title>
<polygon fill="#8dd3c7" stroke="black" points="4502.99,-122 4499.99,-126 4478.99,-126 4475.99,-122 4417.01,-122 4417.01,-86 4502.99,-86 4502.99,-122"/>
<text text-anchor="middle" x="4460" y="-99.8" font-family="Times,serif" font-size="14.00">ChatModule</text>
</g>
<!-- ChatModule&#45;&gt;AppModule -->
<g id="edge9" class="edge">
<title>ChatModule&#45;&gt;AppModule</title>
<path fill="none" stroke="black" d="M4460,-122.13C4460,-142.57 4460,-173 4460,-173 4460,-173 2784.83,-173 2784.83,-173"/>
<polygon fill="black" stroke="black" points="2784.83,-169.5 2774.83,-173 2784.83,-176.5 2784.83,-169.5"/>
</g>
<!-- ConfigModule -->
<g id="node10" class="node">
<title>ConfigModule</title>
<polygon fill="#8dd3c7" stroke="black" points="4399.44,-122 4396.44,-126 4375.44,-126 4372.44,-122 4300.56,-122 4300.56,-86 4399.44,-86 4399.44,-122"/>
<text text-anchor="middle" x="4350" y="-99.8" font-family="Times,serif" font-size="14.00">ConfigModule</text>
</g>
<!-- ConfigModule&#45;&gt;AppModule -->
<g id="edge10" class="edge">
<title>ConfigModule&#45;&gt;AppModule</title>
<path fill="none" stroke="black" d="M4350,-122.31C4350,-142.15 4350,-171 4350,-171 4350,-171 2785.01,-171 2785.01,-171"/>
<polygon fill="black" stroke="black" points="2785.01,-167.5 2775.01,-171 2785.01,-174.5 2785.01,-167.5"/>
</g>
<!-- CouponsModule -->
<g id="node11" class="node">
<title>CouponsModule</title>
<polygon fill="#8dd3c7" stroke="black" points="4282.83,-122 4279.83,-126 4258.83,-126 4255.83,-122 4173.17,-122 4173.17,-86 4282.83,-86 4282.83,-122"/>
<text text-anchor="middle" x="4228" y="-99.8" font-family="Times,serif" font-size="14.00">CouponsModule</text>
</g>
<!-- CouponsModule&#45;&gt;AppModule -->
<g id="edge11" class="edge">
<title>CouponsModule&#45;&gt;AppModule</title>
<path fill="none" stroke="black" d="M4228,-122.11C4228,-141.34 4228,-169 4228,-169 4228,-169 2784.94,-169 2784.94,-169"/>
<polygon fill="black" stroke="black" points="2784.94,-165.5 2774.94,-169 2784.94,-172.5 2784.94,-165.5"/>
</g>
<!-- CurrenciesModule -->
<g id="node12" class="node">
<title>CurrenciesModule</title>
<polygon fill="#8dd3c7" stroke="black" points="4155.19,-122 4152.19,-126 4131.19,-126 4128.19,-122 4034.81,-122 4034.81,-86 4155.19,-86 4155.19,-122"/>
<text text-anchor="middle" x="4095" y="-99.8" font-family="Times,serif" font-size="14.00">CurrenciesModule</text>
</g>
<!-- CurrenciesModule&#45;&gt;AppModule -->
<g id="edge12" class="edge">
<title>CurrenciesModule&#45;&gt;AppModule</title>
<path fill="none" stroke="black" d="M4095,-122.17C4095,-141.09 4095,-168 4095,-168 4095,-168 2784.88,-168 2784.88,-168"/>
<polygon fill="black" stroke="black" points="2784.88,-164.5 2774.88,-168 2784.88,-171.5 2784.88,-164.5"/>
</g>
<!-- DeliveryModule -->
<g id="node13" class="node">
<title>DeliveryModule</title>
<polygon fill="#8dd3c7" stroke="black" points="4017.03,-122 4014.03,-126 3993.03,-126 3990.03,-122 3908.97,-122 3908.97,-86 4017.03,-86 4017.03,-122"/>
<text text-anchor="middle" x="3963" y="-99.8" font-family="Times,serif" font-size="14.00">DeliveryModule</text>
</g>
<!-- DeliveryModule&#45;&gt;AppModule -->
<g id="edge13" class="edge">
<title>DeliveryModule&#45;&gt;AppModule</title>
<path fill="none" stroke="black" d="M3963,-122.27C3963,-140.56 3963,-166 3963,-166 3963,-166 2784.98,-166 2784.98,-166"/>
<polygon fill="black" stroke="black" points="2784.98,-162.5 2774.98,-166 2784.98,-169.5 2784.98,-162.5"/>
</g>
<!-- DineInModule -->
<g id="node14" class="node">
<title>DineInModule</title>
<polygon fill="#8dd3c7" stroke="black" points="3891.42,-122 3888.42,-126 3867.42,-126 3864.42,-122 3792.58,-122 3792.58,-86 3891.42,-86 3891.42,-122"/>
<text text-anchor="middle" x="3842" y="-99.8" font-family="Times,serif" font-size="14.00">DineInModule</text>
</g>
<!-- DineInModule&#45;&gt;AppModule -->
<g id="edge14" class="edge">
<title>DineInModule&#45;&gt;AppModule</title>
<path fill="none" stroke="black" d="M3842,-122.3C3842,-140.27 3842,-165 3842,-165 3842,-165 2784.78,-165 2784.78,-165"/>
<polygon fill="black" stroke="black" points="2784.78,-161.5 2774.78,-165 2784.78,-168.5 2784.78,-161.5"/>
</g>
<!-- DocumentsModule -->
<g id="node15" class="node">
<title>DocumentsModule</title>
<polygon fill="#8dd3c7" stroke="black" points="3774.81,-122 3771.81,-126 3750.81,-126 3747.81,-122 3651.19,-122 3651.19,-86 3774.81,-86 3774.81,-122"/>
<text text-anchor="middle" x="3713" y="-99.8" font-family="Times,serif" font-size="14.00">DocumentsModule</text>
</g>
<!-- DocumentsModule&#45;&gt;AppModule -->
<g id="edge15" class="edge">
<title>DocumentsModule&#45;&gt;AppModule</title>
<path fill="none" stroke="black" d="M3713,-122.02C3713,-139.37 3713,-163 3713,-163 3713,-163 2784.8,-163 2784.8,-163"/>
<polygon fill="black" stroke="black" points="2784.8,-159.5 2774.8,-163 2784.8,-166.5 2784.8,-159.5"/>
</g>
<!-- EmailTemplatesModule -->
<g id="node16" class="node">
<title>EmailTemplatesModule</title>
<polygon fill="#8dd3c7" stroke="black" points="3633.8,-122 3630.8,-126 3609.8,-126 3606.8,-122 3482.2,-122 3482.2,-86 3633.8,-86 3633.8,-122"/>
<text text-anchor="middle" x="3558" y="-99.8" font-family="Times,serif" font-size="14.00">EmailTemplatesModule</text>
</g>
<!-- EmailTemplatesModule&#45;&gt;AppModule -->
<g id="edge16" class="edge">
<title>EmailTemplatesModule&#45;&gt;AppModule</title>
<path fill="none" stroke="black" d="M3558,-122.04C3558,-138.73 3558,-161 3558,-161 3558,-161 2784.76,-161 2784.76,-161"/>
<polygon fill="black" stroke="black" points="2784.76,-157.5 2774.76,-161 2784.76,-164.5 2784.76,-157.5"/>
</g>
<!-- FavouritesModule -->
<g id="node17" class="node">
<title>FavouritesModule</title>
<polygon fill="#8dd3c7" stroke="black" points="3464.15,-122 3461.15,-126 3440.15,-126 3437.15,-122 3345.85,-122 3345.85,-86 3464.15,-86 3464.15,-122"/>
<text text-anchor="middle" x="3405" y="-99.8" font-family="Times,serif" font-size="14.00">FavouritesModule</text>
</g>
<!-- FavouritesModule&#45;&gt;AppModule -->
<g id="edge17" class="edge">
<title>FavouritesModule&#45;&gt;AppModule</title>
<path fill="none" stroke="black" d="M3405,-122.03C3405,-138.4 3405,-160 3405,-160 3405,-160 2784.78,-160 2784.78,-160"/>
<polygon fill="black" stroke="black" points="2784.78,-156.5 2774.78,-160 2784.78,-163.5 2784.78,-156.5"/>
</g>
<!-- GiftCardsModule -->
<g id="node18" class="node">
<title>GiftCardsModule</title>
<polygon fill="#8dd3c7" stroke="black" points="3327.25,-122 3324.25,-126 3303.25,-126 3300.25,-122 3212.75,-122 3212.75,-86 3327.25,-86 3327.25,-122"/>
<text text-anchor="middle" x="3270" y="-99.8" font-family="Times,serif" font-size="14.00">GiftCardsModule</text>
</g>
<!-- GiftCardsModule&#45;&gt;AppModule -->
<g id="edge18" class="edge">
<title>GiftCardsModule&#45;&gt;AppModule</title>
<path fill="none" stroke="black" d="M3270,-122.28C3270,-137.95 3270,-158 3270,-158 3270,-158 2784.69,-158 2784.69,-158"/>
<polygon fill="black" stroke="black" points="2784.69,-154.5 2774.69,-158 2784.69,-161.5 2784.69,-154.5"/>
</g>
<!-- LanguagesModule -->
<g id="node19" class="node">
<title>LanguagesModule</title>
<polygon fill="#8dd3c7" stroke="black" points="3195.19,-122 3192.19,-126 3171.19,-126 3168.19,-122 3074.81,-122 3074.81,-86 3195.19,-86 3195.19,-122"/>
<text text-anchor="middle" x="3135" y="-99.8" font-family="Times,serif" font-size="14.00">LanguagesModule</text>
</g>
<!-- LanguagesModule&#45;&gt;AppModule -->
<g id="edge19" class="edge">
<title>LanguagesModule&#45;&gt;AppModule</title>
<path fill="none" stroke="black" d="M3135,-122.19C3135,-137.18 3135,-156 3135,-156 3135,-156 2784.88,-156 2784.88,-156"/>
<polygon fill="black" stroke="black" points="2784.88,-152.5 2774.88,-156 2784.88,-159.5 2784.88,-152.5"/>
</g>
<!-- MapsModule -->
<g id="node20" class="node">
<title>MapsModule</title>
<polygon fill="#8dd3c7" stroke="black" points="3057.15,-122 3054.15,-126 3033.15,-126 3030.15,-122 2966.85,-122 2966.85,-86 3057.15,-86 3057.15,-122"/>
<text text-anchor="middle" x="3012" y="-99.8" font-family="Times,serif" font-size="14.00">MapsModule</text>
</g>
<!-- MapsModule&#45;&gt;AppModule -->
<g id="edge20" class="edge">
<title>MapsModule&#45;&gt;AppModule</title>
<path fill="none" stroke="black" d="M3012,-122.12C3012,-136.78 3012,-155 3012,-155 3012,-155 2784.77,-155 2784.77,-155"/>
<polygon fill="black" stroke="black" points="2784.77,-151.5 2774.77,-155 2784.77,-158.5 2784.77,-151.5"/>
</g>
<!-- NotificationsModule -->
<g id="node21" class="node">
<title>NotificationsModule</title>
<polygon fill="#8dd3c7" stroke="black" points="2948.14,-122 2945.14,-126 2924.14,-126 2921.14,-122 2815.86,-122 2815.86,-86 2948.14,-86 2948.14,-122"/>
<text text-anchor="middle" x="2882" y="-99.8" font-family="Times,serif" font-size="14.00">NotificationsModule</text>
</g>
<!-- NotificationsModule&#45;&gt;AppModule -->
<g id="edge21" class="edge">
<title>NotificationsModule&#45;&gt;AppModule</title>
<path fill="none" stroke="black" d="M2882,-122.25C2882,-136.18 2882,-153 2882,-153 2882,-153 2784.9,-153 2784.9,-153"/>
<polygon fill="black" stroke="black" points="2784.9,-149.5 2774.9,-153 2784.9,-156.5 2784.9,-149.5"/>
</g>
<!-- OnBoardingModule -->
<g id="node22" class="node">
<title>OnBoardingModule</title>
<polygon fill="#8dd3c7" stroke="black" points="2797.26,-122 2794.26,-126 2773.26,-126 2770.26,-122 2668.74,-122 2668.74,-86 2797.26,-86 2797.26,-122"/>
<text text-anchor="middle" x="2733" y="-99.8" font-family="Times,serif" font-size="14.00">OnBoardingModule</text>
</g>
<!-- OnBoardingModule&#45;&gt;AppModule -->
<g id="edge22" class="edge">
<title>OnBoardingModule&#45;&gt;AppModule</title>
<path fill="none" stroke="black" d="M2733,-122.11C2733,-122.11 2733,-140.99 2733,-140.99"/>
<polygon fill="black" stroke="black" points="2729.5,-140.99 2733,-150.99 2736.5,-140.99 2729.5,-140.99"/>
</g>
<!-- OrdersModule -->
<g id="node23" class="node">
<title>OrdersModule</title>
<polygon fill="#8dd3c7" stroke="black" points="2650.64,-122 2647.64,-126 2626.64,-126 2623.64,-122 2553.36,-122 2553.36,-86 2650.64,-86 2650.64,-122"/>
<text text-anchor="middle" x="2602" y="-99.8" font-family="Times,serif" font-size="14.00">OrdersModule</text>
</g>
<!-- OrdersModule&#45;&gt;AppModule -->
<g id="edge23" class="edge">
<title>OrdersModule&#45;&gt;AppModule</title>
<path fill="none" stroke="black" d="M2602,-122.25C2602,-136.18 2602,-153 2602,-153 2602,-153 2681.19,-153 2681.19,-153"/>
<polygon fill="black" stroke="black" points="2681.19,-156.5 2691.19,-153 2681.19,-149.5 2681.19,-156.5"/>
</g>
<!-- PaymentModule -->
<g id="node24" class="node">
<title>PaymentModule</title>
<polygon fill="#8dd3c7" stroke="black" points="2535.04,-122 2532.04,-126 2511.04,-126 2508.04,-122 2426.96,-122 2426.96,-86 2535.04,-86 2535.04,-122"/>
<text text-anchor="middle" x="2481" y="-99.8" font-family="Times,serif" font-size="14.00">PaymentModule</text>
</g>
<!-- PaymentModule&#45;&gt;AppModule -->
<g id="edge24" class="edge">
<title>PaymentModule&#45;&gt;AppModule</title>
<path fill="none" stroke="black" d="M2481,-122.12C2481,-136.78 2481,-155 2481,-155 2481,-155 2681.1,-155 2681.1,-155"/>
<polygon fill="black" stroke="black" points="2681.1,-158.5 2691.1,-155 2681.1,-151.5 2681.1,-158.5"/>
</g>
<!-- PrismaModule -->
<g id="node25" class="node">
<title>PrismaModule</title>
<polygon fill="#8dd3c7" stroke="black" points="2409.43,-122 2406.43,-126 2385.43,-126 2382.43,-122 2310.57,-122 2310.57,-86 2409.43,-86 2409.43,-122"/>
<text text-anchor="middle" x="2360" y="-99.8" font-family="Times,serif" font-size="14.00">PrismaModule</text>
</g>
<!-- PrismaModule&#45;&gt;AppModule -->
<g id="edge25" class="edge">
<title>PrismaModule&#45;&gt;AppModule</title>
<path fill="none" stroke="black" d="M2360,-122.19C2360,-137.18 2360,-156 2360,-156 2360,-156 2681.3,-156 2681.3,-156"/>
<polygon fill="black" stroke="black" points="2681.3,-159.5 2691.3,-156 2681.3,-152.5 2681.3,-159.5"/>
</g>
<!-- ProductsModule -->
<g id="node26" class="node">
<title>ProductsModule</title>
<polygon fill="#8dd3c7" stroke="black" points="2293.04,-122 2290.04,-126 2269.04,-126 2266.04,-122 2184.96,-122 2184.96,-86 2293.04,-86 2293.04,-122"/>
<text text-anchor="middle" x="2239" y="-99.8" font-family="Times,serif" font-size="14.00">ProductsModule</text>
</g>
<!-- ProductsModule&#45;&gt;AppModule -->
<g id="edge26" class="edge">
<title>ProductsModule&#45;&gt;AppModule</title>
<path fill="none" stroke="black" d="M2239,-122.28C2239,-137.95 2239,-158 2239,-158 2239,-158 2681.31,-158 2681.31,-158"/>
<polygon fill="black" stroke="black" points="2681.31,-161.5 2691.31,-158 2681.31,-154.5 2681.31,-161.5"/>
</g>
<!-- ReferralsModule -->
<g id="node27" class="node">
<title>ReferralsModule</title>
<polygon fill="#8dd3c7" stroke="black" points="2166.35,-122 2163.35,-126 2142.35,-126 2139.35,-122 2055.65,-122 2055.65,-86 2166.35,-86 2166.35,-122"/>
<text text-anchor="middle" x="2111" y="-99.8" font-family="Times,serif" font-size="14.00">ReferralsModule</text>
</g>
<!-- ReferralsModule&#45;&gt;AppModule -->
<g id="edge27" class="edge">
<title>ReferralsModule&#45;&gt;AppModule</title>
<path fill="none" stroke="black" d="M2111,-122.03C2111,-138.4 2111,-160 2111,-160 2111,-160 2681.22,-160 2681.22,-160"/>
<polygon fill="black" stroke="black" points="2681.22,-163.5 2691.22,-160 2681.22,-156.5 2681.22,-163.5"/>
</g>
<!-- ReviewAttributesModule -->
<g id="node28" class="node">
<title>ReviewAttributesModule</title>
<polygon fill="#8dd3c7" stroke="black" points="2037.3,-122 2034.3,-126 2013.3,-126 2010.3,-122 1878.7,-122 1878.7,-86 2037.3,-86 2037.3,-122"/>
<text text-anchor="middle" x="1958" y="-99.8" font-family="Times,serif" font-size="14.00">ReviewAttributesModule</text>
</g>
<!-- ReviewAttributesModule&#45;&gt;AppModule -->
<g id="edge28" class="edge">
<title>ReviewAttributesModule&#45;&gt;AppModule</title>
<path fill="none" stroke="black" d="M1958,-122.04C1958,-138.73 1958,-161 1958,-161 1958,-161 2681.33,-161 2681.33,-161"/>
<polygon fill="black" stroke="black" points="2681.33,-164.5 2691.33,-161 2681.33,-157.5 2681.33,-164.5"/>
</g>
<!-- ReviewsModule -->
<g id="node29" class="node">
<title>ReviewsModule</title>
<polygon fill="#8dd3c7" stroke="black" points="1860.76,-122 1857.76,-126 1836.76,-126 1833.76,-122 1753.24,-122 1753.24,-86 1860.76,-86 1860.76,-122"/>
<text text-anchor="middle" x="1807" y="-99.8" font-family="Times,serif" font-size="14.00">ReviewsModule</text>
</g>
<!-- ReviewsModule&#45;&gt;AppModule -->
<g id="edge29" class="edge">
<title>ReviewsModule&#45;&gt;AppModule</title>
<path fill="none" stroke="black" d="M1807,-122.02C1807,-139.37 1807,-163 1807,-163 1807,-163 2681.11,-163 2681.11,-163"/>
<polygon fill="black" stroke="black" points="2681.11,-166.5 2691.11,-163 2681.11,-159.5 2681.11,-166.5"/>
</g>
<!-- SearchModule -->
<g id="node30" class="node">
<title>SearchModule</title>
<polygon fill="#8dd3c7" stroke="black" points="1734.64,-122 1731.64,-126 1710.64,-126 1707.64,-122 1637.36,-122 1637.36,-86 1734.64,-86 1734.64,-122"/>
<text text-anchor="middle" x="1686" y="-99.8" font-family="Times,serif" font-size="14.00">SearchModule</text>
</g>
<!-- SearchModule&#45;&gt;AppModule -->
<g id="edge30" class="edge">
<title>SearchModule&#45;&gt;AppModule</title>
<path fill="none" stroke="black" d="M1686,-122.3C1686,-140.27 1686,-165 1686,-165 1686,-165 2681.31,-165 2681.31,-165"/>
<polygon fill="black" stroke="black" points="2681.31,-168.5 2691.31,-165 2681.31,-161.5 2681.31,-168.5"/>
</g>
<!-- SettingsModule -->
<g id="node31" class="node">
<title>SettingsModule</title>
<polygon fill="#8dd3c7" stroke="black" points="1619.16,-122 1616.16,-126 1595.16,-126 1592.16,-122 1514.84,-122 1514.84,-86 1619.16,-86 1619.16,-122"/>
<text text-anchor="middle" x="1567" y="-99.8" font-family="Times,serif" font-size="14.00">SettingsModule</text>
</g>
<!-- SettingsModule&#45;&gt;AppModule -->
<g id="edge31" class="edge">
<title>SettingsModule&#45;&gt;AppModule</title>
<path fill="none" stroke="black" d="M1567,-122.27C1567,-140.56 1567,-166 1567,-166 1567,-166 2681.16,-166 2681.16,-166"/>
<polygon fill="black" stroke="black" points="2681.16,-169.5 2691.16,-166 2681.16,-162.5 2681.16,-169.5"/>
</g>
<!-- SharedModule -->
<g id="node32" class="node">
<title>SharedModule</title>
<polygon fill="#8dd3c7" stroke="black" points="1496.42,-122 1493.42,-126 1472.42,-126 1469.42,-122 1397.58,-122 1397.58,-86 1496.42,-86 1496.42,-122"/>
<text text-anchor="middle" x="1447" y="-99.8" font-family="Times,serif" font-size="14.00">SharedModule</text>
</g>
<!-- SharedModule&#45;&gt;AppModule -->
<g id="edge32" class="edge">
<title>SharedModule&#45;&gt;AppModule</title>
<path fill="none" stroke="black" d="M1447,-122.17C1447,-141.09 1447,-168 1447,-168 1447,-168 2681.31,-168 2681.31,-168"/>
<polygon fill="black" stroke="black" points="2681.31,-171.5 2691.31,-168 2681.31,-164.5 2681.31,-171.5"/>
</g>
<!-- StoriesModule -->
<g id="node33" class="node">
<title>StoriesModule</title>
<polygon fill="#8dd3c7" stroke="black" points="1380.43,-122 1377.43,-126 1356.43,-126 1353.43,-122 1281.57,-122 1281.57,-86 1380.43,-86 1380.43,-122"/>
<text text-anchor="middle" x="1331" y="-99.8" font-family="Times,serif" font-size="14.00">StoriesModule</text>
</g>
<!-- StoriesModule&#45;&gt;AppModule -->
<g id="edge33" class="edge">
<title>StoriesModule&#45;&gt;AppModule</title>
<path fill="none" stroke="black" d="M1331,-122.11C1331,-141.34 1331,-169 1331,-169 1331,-169 2681.04,-169 2681.04,-169"/>
<polygon fill="black" stroke="black" points="2681.04,-172.5 2691.04,-169 2681.04,-165.5 2681.04,-172.5"/>
</g>
<!-- SubscriptionsModule -->
<g id="node34" class="node">
<title>SubscriptionsModule</title>
<polygon fill="#8dd3c7" stroke="black" points="1263.77,-122 1260.77,-126 1239.77,-126 1236.77,-122 1128.23,-122 1128.23,-86 1263.77,-86 1263.77,-122"/>
<text text-anchor="middle" x="1196" y="-99.8" font-family="Times,serif" font-size="14.00">SubscriptionsModule</text>
</g>
<!-- SubscriptionsModule&#45;&gt;AppModule -->
<g id="edge34" class="edge">
<title>SubscriptionsModule&#45;&gt;AppModule</title>
<path fill="none" stroke="black" d="M1196,-122.31C1196,-142.15 1196,-171 1196,-171 1196,-171 2681.09,-171 2681.09,-171"/>
<polygon fill="black" stroke="black" points="2681.09,-174.5 2691.09,-171 2681.09,-167.5 2681.09,-174.5"/>
</g>
<!-- SupportModule -->
<g id="node35" class="node">
<title>SupportModule</title>
<polygon fill="#8dd3c7" stroke="black" points="1109.88,-122 1106.88,-126 1085.88,-126 1082.88,-122 1006.12,-122 1006.12,-86 1109.88,-86 1109.88,-122"/>
<text text-anchor="middle" x="1058" y="-99.8" font-family="Times,serif" font-size="14.00">SupportModule</text>
</g>
<!-- SupportModule&#45;&gt;AppModule -->
<g id="edge35" class="edge">
<title>SupportModule&#45;&gt;AppModule</title>
<path fill="none" stroke="black" d="M1058,-122.13C1058,-142.57 1058,-173 1058,-173 1058,-173 2681.18,-173 2681.18,-173"/>
<polygon fill="black" stroke="black" points="2681.18,-176.5 2691.18,-173 2681.18,-169.5 2681.18,-176.5"/>
</g>
<!-- TaxesModule -->
<g id="node36" class="node">
<title>TaxesModule</title>
<polygon fill="#8dd3c7" stroke="black" points="988.48,-122 985.48,-126 964.48,-126 961.48,-122 895.52,-122 895.52,-86 988.48,-86 988.48,-122"/>
<text text-anchor="middle" x="942" y="-99.8" font-family="Times,serif" font-size="14.00">TaxesModule</text>
</g>
<!-- TaxesModule&#45;&gt;AppModule -->
<g id="edge36" class="edge">
<title>TaxesModule&#45;&gt;AppModule</title>
<path fill="none" stroke="black" d="M942,-122.03C942,-142.77 942,-174 942,-174 942,-174 2680.93,-174 2680.93,-174"/>
<polygon fill="black" stroke="black" points="2680.93,-177.5 2690.93,-174 2680.93,-170.5 2680.93,-177.5"/>
</g>
<!-- UploadModule -->
<g id="node37" class="node">
<title>UploadModule</title>
<polygon fill="#8dd3c7" stroke="black" points="877.26,-122 874.26,-126 853.26,-126 850.26,-122 776.74,-122 776.74,-86 877.26,-86 877.26,-122"/>
<text text-anchor="middle" x="827" y="-99.8" font-family="Times,serif" font-size="14.00">UploadModule</text>
</g>
<!-- UploadModule&#45;&gt;AppModule -->
<g id="edge37" class="edge">
<title>UploadModule&#45;&gt;AppModule</title>
<path fill="none" stroke="black" d="M827,-122.17C827,-143.5 827,-176 827,-176 827,-176 2680.97,-176 2680.97,-176"/>
<polygon fill="black" stroke="black" points="2680.97,-179.5 2690.97,-176 2680.97,-172.5 2680.97,-179.5"/>
</g>
<!-- UsersModule -->
<g id="node38" class="node">
<title>UsersModule</title>
<polygon fill="#8dd3c7" stroke="black" points="758.92,-122 755.92,-126 734.92,-126 731.92,-122 667.08,-122 667.08,-86 758.92,-86 758.92,-122"/>
<text text-anchor="middle" x="713" y="-99.8" font-family="Times,serif" font-size="14.00">UsersModule</text>
</g>
<!-- UsersModule&#45;&gt;AppModule -->
<g id="edge38" class="edge">
<title>UsersModule&#45;&gt;AppModule</title>
<path fill="none" stroke="black" d="M713,-122.29C713,-144.21 713,-178 713,-178 713,-178 2681.27,-178 2681.27,-178"/>
<polygon fill="black" stroke="black" points="2681.27,-181.5 2691.27,-178 2681.27,-174.5 2681.27,-181.5"/>
</g>
<!-- VendorTypesModule -->
<g id="node39" class="node">
<title>VendorTypesModule</title>
<polygon fill="#8dd3c7" stroke="black" points="648.74,-122 645.74,-126 624.74,-126 621.74,-122 513.26,-122 513.26,-86 648.74,-86 648.74,-122"/>
<text text-anchor="middle" x="581" y="-99.8" font-family="Times,serif" font-size="14.00">VendorTypesModule</text>
</g>
<!-- VendorTypesModule&#45;&gt;AppModule -->
<g id="edge39" class="edge">
<title>VendorTypesModule&#45;&gt;AppModule</title>
<path fill="none" stroke="black" d="M581,-122.16C581,-144.35 581,-179 581,-179 581,-179 2680.98,-179 2680.98,-179"/>
<polygon fill="black" stroke="black" points="2680.98,-182.5 2690.98,-179 2680.98,-175.5 2680.98,-182.5"/>
</g>
<!-- VendorsModule -->
<g id="node40" class="node">
<title>VendorsModule</title>
<polygon fill="#8dd3c7" stroke="black" points="495.48,-122 492.48,-126 471.48,-126 468.48,-122 388.52,-122 388.52,-86 495.48,-86 495.48,-122"/>
<text text-anchor="middle" x="442" y="-99.8" font-family="Times,serif" font-size="14.00">VendorsModule</text>
</g>
<!-- VendorsModule&#45;&gt;AppModule -->
<g id="edge40" class="edge">
<title>VendorsModule&#45;&gt;AppModule</title>
<path fill="none" stroke="black" d="M442,-122.25C442,-145.02 442,-181 442,-181 442,-181 2681.28,-181 2681.28,-181"/>
<polygon fill="black" stroke="black" points="2681.28,-184.5 2691.28,-181 2681.28,-177.5 2681.28,-184.5"/>
</g>
<!-- WalletModule -->
<g id="node41" class="node">
<title>WalletModule</title>
<polygon fill="#8dd3c7" stroke="black" points="370.37,-122 367.37,-126 346.37,-126 343.37,-122 273.63,-122 273.63,-86 370.37,-86 370.37,-122"/>
<text text-anchor="middle" x="322" y="-99.8" font-family="Times,serif" font-size="14.00">WalletModule</text>
</g>
<!-- WalletModule&#45;&gt;AppModule -->
<g id="edge41" class="edge">
<title>WalletModule&#45;&gt;AppModule</title>
<path fill="none" stroke="black" d="M322,-122.32C322,-145.66 322,-183 322,-183 322,-183 2681.15,-183 2681.15,-183"/>
<polygon fill="black" stroke="black" points="2681.15,-186.5 2691.15,-183 2681.15,-179.5 2681.15,-186.5"/>
</g>
<!-- ZonesModule -->
<g id="node42" class="node">
<title>ZonesModule</title>
<polygon fill="#8dd3c7" stroke="black" points="255.76,-122 252.76,-126 231.76,-126 228.76,-122 162.24,-122 162.24,-86 255.76,-86 255.76,-122"/>
<text text-anchor="middle" x="209" y="-99.8" font-family="Times,serif" font-size="14.00">ZonesModule</text>
</g>
<!-- ZonesModule&#45;&gt;AppModule -->
<g id="edge42" class="edge">
<title>ZonesModule&#45;&gt;AppModule</title>
<path fill="none" stroke="black" d="M209,-122.15C209,-145.76 209,-184 209,-184 209,-184 2681.3,-184 2681.3,-184"/>
<polygon fill="black" stroke="black" points="2681.3,-187.5 2691.3,-184 2681.3,-180.5 2681.3,-187.5"/>
</g>
<!-- AppService -->
<g id="node44" class="node">
<title>AppService</title>
<ellipse fill="#fdb462" stroke="black" cx="81" cy="-104" rx="56.74" ry="18"/>
<text text-anchor="middle" x="81" y="-99.8" font-family="Times,serif" font-size="14.00">AppService</text>
</g>
<!-- AppService&#45;&gt;AppModule -->
<g id="edge43" class="edge">
<title>AppService&#45;&gt;AppModule</title>
<path fill="none" stroke="black" d="M81,-122.2C81,-146.36 81,-186 81,-186 81,-186 2681.08,-186 2681.08,-186"/>
<polygon fill="black" stroke="black" points="2681.08,-189.5 2691.08,-186 2681.08,-182.5 2681.08,-189.5"/>
</g>
</g>
</svg>
