<?xml version="1.0" encoding="UTF-8" standalone="no"?>
<!DOCTYPE svg PUBLIC "-//W3C//DTD SVG 1.1//EN"
 "http://www.w3.org/Graphics/SVG/1.1/DTD/svg11.dtd">
<!-- Generated by graphviz version 2.47.0 (20210316.0004)
 -->
<!-- Title: dependencies Pages: 1 -->
<svg width="504pt" height="284pt"
 viewBox="0.00 0.00 504.00 284.00" xmlns="http://www.w3.org/2000/svg" xmlns:xlink="http://www.w3.org/1999/xlink">
<g id="graph0" class="graph" transform="scale(1 1) rotate(0) translate(4 280)">
<title>dependencies</title>
<polygon fill="white" stroke="transparent" points="-4,4 -4,-280 500,-280 500,4 -4,4"/>
<text text-anchor="start" x="227.01" y="-42.4" font-family="Times-12" font-weight="bold" font-size="14.00">Legend</text>
<polygon fill="#ffffb3" stroke="transparent" points="14,-10 14,-30 34,-30 34,-10 14,-10"/>
<text text-anchor="start" x="37.63" y="-15.4" font-family="Times-12" font-size="14.00"> &#160;Declarations</text>
<polygon fill="#8dd3c7" stroke="transparent" points="127,-10 127,-30 147,-30 147,-10 127,-10"/>
<text text-anchor="start" x="150.73" y="-15.4" font-family="Times-12" font-size="14.00"> &#160;Module</text>
<polygon fill="#80b1d3" stroke="transparent" points="213,-10 213,-30 233,-30 233,-10 213,-10"/>
<text text-anchor="start" x="236.78" y="-15.4" font-family="Times-12" font-size="14.00"> &#160;Bootstrap</text>
<polygon fill="#fdb462" stroke="transparent" points="310,-10 310,-30 330,-30 330,-10 310,-10"/>
<text text-anchor="start" x="333.67" y="-15.4" font-family="Times-12" font-size="14.00"> &#160;Providers</text>
<polygon fill="#fb8072" stroke="transparent" points="406,-10 406,-30 426,-30 426,-10 406,-10"/>
<text text-anchor="start" x="429.73" y="-15.4" font-family="Times-12" font-size="14.00"> &#160;Exports</text>
<g id="clust1" class="cluster">
<title>cluster_BannersModule</title>
<polygon fill="none" stroke="black" stroke-dasharray="1,5" points="99,-70 99,-268 397,-268 397,-70 99,-70"/>
</g>
<g id="clust6" class="cluster">
<title>cluster_BannersModule_providers</title>
<polygon fill="none" stroke="black" points="229,-78 229,-130 389,-130 389,-78 229,-78"/>
</g>
<g id="clust4" class="cluster">
<title>cluster_BannersModule_exports</title>
<polygon fill="none" stroke="black" points="177,-208 177,-260 301,-260 301,-208 177,-208"/>
</g>
<g id="clust3" class="cluster">
<title>cluster_BannersModule_imports</title>
<polygon fill="none" stroke="black" points="107,-78 107,-130 221,-130 221,-78 107,-78"/>
</g>
<!-- PrismaModule -->
<g id="node1" class="node">
<title>PrismaModule</title>
<polygon fill="#8dd3c7" stroke="black" points="213.43,-122 210.43,-126 189.43,-126 186.43,-122 114.57,-122 114.57,-86 213.43,-86 213.43,-122"/>
<text text-anchor="middle" x="164" y="-99.8" font-family="Times,serif" font-size="14.00">PrismaModule</text>
</g>
<!-- BannersModule -->
<g id="node2" class="node">
<title>BannersModule</title>
<polygon fill="#8dd3c7" stroke="black" points="291.92,-187 288.92,-191 267.92,-191 264.92,-187 186.08,-187 186.08,-151 291.92,-151 291.92,-187"/>
<text text-anchor="middle" x="239" y="-164.8" font-family="Times,serif" font-size="14.00">BannersModule</text>
</g>
<!-- PrismaModule&#45;&gt;BannersModule -->
<g id="edge1" class="edge">
<title>PrismaModule&#45;&gt;BannersModule</title>
<path fill="none" stroke="black" d="M199.75,-122.11C199.75,-122.11 199.75,-140.99 199.75,-140.99"/>
<polygon fill="black" stroke="black" points="196.25,-140.99 199.75,-150.99 203.25,-140.99 196.25,-140.99"/>
</g>
<!-- BannersService  -->
<g id="node3" class="node">
<title>BannersService </title>
<polygon fill="#fb8072" stroke="black" points="292.85,-252 185.15,-252 185.15,-216 292.85,-216 292.85,-252"/>
<text text-anchor="middle" x="239" y="-229.8" font-family="Times,serif" font-size="14.00">BannersService </text>
</g>
<!-- BannersModule&#45;&gt;BannersService  -->
<g id="edge2" class="edge">
<title>BannersModule&#45;&gt;BannersService </title>
<path fill="none" stroke="black" stroke-dasharray="5,2" d="M239,-187.11C239,-187.11 239,-205.99 239,-205.99"/>
<polygon fill="black" stroke="black" points="235.5,-205.99 239,-215.99 242.5,-205.99 235.5,-205.99"/>
</g>
<!-- BannersService -->
<g id="node4" class="node">
<title>BannersService</title>
<ellipse fill="#fdb462" stroke="black" cx="309" cy="-104" rx="71.77" ry="18"/>
<text text-anchor="middle" x="309" y="-99.8" font-family="Times,serif" font-size="14.00">BannersService</text>
</g>
<!-- BannersService&#45;&gt;BannersModule -->
<g id="edge3" class="edge">
<title>BannersService&#45;&gt;BannersModule</title>
<path fill="none" stroke="black" d="M264.54,-118.43C264.54,-118.43 264.54,-140.89 264.54,-140.89"/>
<polygon fill="black" stroke="black" points="261.04,-140.89 264.54,-150.89 268.04,-140.89 261.04,-140.89"/>
</g>
</g>
</svg>
