<?xml version="1.0" encoding="UTF-8" standalone="no"?>
<!DOCTYPE svg PUBLIC "-//W3C//DTD SVG 1.1//EN"
 "http://www.w3.org/Graphics/SVG/1.1/DTD/svg11.dtd">
<!-- Generated by graphviz version 2.47.0 (20210316.0004)
 -->
<!-- Title: dependencies Pages: 1 -->
<svg width="504pt" height="284pt"
 viewBox="0.00 0.00 504.00 284.00" xmlns="http://www.w3.org/2000/svg" xmlns:xlink="http://www.w3.org/1999/xlink">
<g id="graph0" class="graph" transform="scale(1 1) rotate(0) translate(4 280)">
<title>dependencies</title>
<polygon fill="white" stroke="transparent" points="-4,4 -4,-280 500,-280 500,4 -4,4"/>
<text text-anchor="start" x="227.01" y="-42.4" font-family="Times-12" font-weight="bold" font-size="14.00">Legend</text>
<polygon fill="#ffffb3" stroke="transparent" points="14,-10 14,-30 34,-30 34,-10 14,-10"/>
<text text-anchor="start" x="37.63" y="-15.4" font-family="Times-12" font-size="14.00"> &#160;Declarations</text>
<polygon fill="#8dd3c7" stroke="transparent" points="127,-10 127,-30 147,-30 147,-10 127,-10"/>
<text text-anchor="start" x="150.73" y="-15.4" font-family="Times-12" font-size="14.00"> &#160;Module</text>
<polygon fill="#80b1d3" stroke="transparent" points="213,-10 213,-30 233,-30 233,-10 213,-10"/>
<text text-anchor="start" x="236.78" y="-15.4" font-family="Times-12" font-size="14.00"> &#160;Bootstrap</text>
<polygon fill="#fdb462" stroke="transparent" points="310,-10 310,-30 330,-30 330,-10 310,-10"/>
<text text-anchor="start" x="333.67" y="-15.4" font-family="Times-12" font-size="14.00"> &#160;Providers</text>
<polygon fill="#fb8072" stroke="transparent" points="406,-10 406,-30 426,-30 426,-10 406,-10"/>
<text text-anchor="start" x="429.73" y="-15.4" font-family="Times-12" font-size="14.00"> &#160;Exports</text>
<g id="clust1" class="cluster">
<title>cluster_OnBoardingModule</title>
<polygon fill="none" stroke="black" stroke-dasharray="1,5" points="83,-70 83,-268 413,-268 413,-70 83,-70"/>
</g>
<g id="clust6" class="cluster">
<title>cluster_OnBoardingModule_providers</title>
<polygon fill="none" stroke="black" points="213,-78 213,-130 405,-130 405,-78 213,-78"/>
</g>
<g id="clust4" class="cluster">
<title>cluster_OnBoardingModule_exports</title>
<polygon fill="none" stroke="black" points="163,-208 163,-260 309,-260 309,-208 163,-208"/>
</g>
<g id="clust3" class="cluster">
<title>cluster_OnBoardingModule_imports</title>
<polygon fill="none" stroke="black" points="91,-78 91,-130 205,-130 205,-78 91,-78"/>
</g>
<!-- PrismaModule -->
<g id="node1" class="node">
<title>PrismaModule</title>
<polygon fill="#8dd3c7" stroke="black" points="197.43,-122 194.43,-126 173.43,-126 170.43,-122 98.57,-122 98.57,-86 197.43,-86 197.43,-122"/>
<text text-anchor="middle" x="148" y="-99.8" font-family="Times,serif" font-size="14.00">PrismaModule</text>
</g>
<!-- OnBoardingModule -->
<g id="node2" class="node">
<title>OnBoardingModule</title>
<polygon fill="#8dd3c7" stroke="black" points="300.26,-187 297.26,-191 276.26,-191 273.26,-187 171.74,-187 171.74,-151 300.26,-151 300.26,-187"/>
<text text-anchor="middle" x="236" y="-164.8" font-family="Times,serif" font-size="14.00">OnBoardingModule</text>
</g>
<!-- PrismaModule&#45;&gt;OnBoardingModule -->
<g id="edge1" class="edge">
<title>PrismaModule&#45;&gt;OnBoardingModule</title>
<path fill="none" stroke="black" d="M184.42,-122.11C184.42,-122.11 184.42,-140.99 184.42,-140.99"/>
<polygon fill="black" stroke="black" points="180.92,-140.99 184.42,-150.99 187.92,-140.99 180.92,-140.99"/>
</g>
<!-- OnBoardingService  -->
<g id="node3" class="node">
<title>OnBoardingService </title>
<polygon fill="#fb8072" stroke="black" points="301.19,-252 170.81,-252 170.81,-216 301.19,-216 301.19,-252"/>
<text text-anchor="middle" x="236" y="-229.8" font-family="Times,serif" font-size="14.00">OnBoardingService </text>
</g>
<!-- OnBoardingModule&#45;&gt;OnBoardingService  -->
<g id="edge2" class="edge">
<title>OnBoardingModule&#45;&gt;OnBoardingService </title>
<path fill="none" stroke="black" stroke-dasharray="5,2" d="M236,-187.11C236,-187.11 236,-205.99 236,-205.99"/>
<polygon fill="black" stroke="black" points="232.5,-205.99 236,-215.99 239.5,-205.99 232.5,-205.99"/>
</g>
<!-- OnBoardingService -->
<g id="node4" class="node">
<title>OnBoardingService</title>
<ellipse fill="#fdb462" stroke="black" cx="309" cy="-104" rx="87.96" ry="18"/>
<text text-anchor="middle" x="309" y="-99.8" font-family="Times,serif" font-size="14.00">OnBoardingService</text>
</g>
<!-- OnBoardingService&#45;&gt;OnBoardingModule -->
<g id="edge3" class="edge">
<title>OnBoardingService&#45;&gt;OnBoardingModule</title>
<path fill="none" stroke="black" d="M260.82,-119.08C260.82,-119.08 260.82,-140.76 260.82,-140.76"/>
<polygon fill="black" stroke="black" points="257.32,-140.76 260.82,-150.76 264.32,-140.76 257.32,-140.76"/>
</g>
</g>
</svg>
