<?xml version="1.0" encoding="UTF-8" standalone="no"?>
<!DOCTYPE svg PUBLIC "-//W3C//DTD SVG 1.1//EN"
 "http://www.w3.org/Graphics/SVG/1.1/DTD/svg11.dtd">
<!-- Generated by graphviz version 2.47.0 (20210316.0004)
 -->
<!-- Title: dependencies Pages: 1 -->
<svg width="576pt" height="284pt"
 viewBox="0.00 0.00 576.00 284.00" xmlns="http://www.w3.org/2000/svg" xmlns:xlink="http://www.w3.org/1999/xlink">
<g id="graph0" class="graph" transform="scale(1 1) rotate(0) translate(4 280)">
<title>dependencies</title>
<polygon fill="white" stroke="transparent" points="-4,4 -4,-280 572,-280 572,4 -4,4"/>
<text text-anchor="start" x="263.01" y="-42.4" font-family="Times-12" font-weight="bold" font-size="14.00">Legend</text>
<polygon fill="#ffffb3" stroke="transparent" points="50,-10 50,-30 70,-30 70,-10 50,-10"/>
<text text-anchor="start" x="73.63" y="-15.4" font-family="Times-12" font-size="14.00"> &#160;Declarations</text>
<polygon fill="#8dd3c7" stroke="transparent" points="163,-10 163,-30 183,-30 183,-10 163,-10"/>
<text text-anchor="start" x="186.73" y="-15.4" font-family="Times-12" font-size="14.00"> &#160;Module</text>
<polygon fill="#80b1d3" stroke="transparent" points="249,-10 249,-30 269,-30 269,-10 249,-10"/>
<text text-anchor="start" x="272.78" y="-15.4" font-family="Times-12" font-size="14.00"> &#160;Bootstrap</text>
<polygon fill="#fdb462" stroke="transparent" points="346,-10 346,-30 366,-30 366,-10 346,-10"/>
<text text-anchor="start" x="369.67" y="-15.4" font-family="Times-12" font-size="14.00"> &#160;Providers</text>
<polygon fill="#fb8072" stroke="transparent" points="442,-10 442,-30 462,-30 462,-10 442,-10"/>
<text text-anchor="start" x="465.73" y="-15.4" font-family="Times-12" font-size="14.00"> &#160;Exports</text>
<g id="clust1" class="cluster">
<title>cluster_LanguagesModule</title>
<polygon fill="none" stroke="black" stroke-dasharray="1,5" points="8,-70 8,-268 560,-268 560,-70 8,-70"/>
</g>
<g id="clust3" class="cluster">
<title>cluster_LanguagesModule_imports</title>
<polygon fill="none" stroke="black" points="438,-78 438,-130 552,-130 552,-78 438,-78"/>
</g>
<g id="clust4" class="cluster">
<title>cluster_LanguagesModule_exports</title>
<polygon fill="none" stroke="black" points="245,-208 245,-260 383,-260 383,-208 245,-208"/>
</g>
<g id="clust6" class="cluster">
<title>cluster_LanguagesModule_providers</title>
<polygon fill="none" stroke="black" points="16,-78 16,-130 430,-130 430,-78 16,-78"/>
</g>
<!-- PrismaModule -->
<g id="node1" class="node">
<title>PrismaModule</title>
<polygon fill="#8dd3c7" stroke="black" points="544.43,-122 541.43,-126 520.43,-126 517.43,-122 445.57,-122 445.57,-86 544.43,-86 544.43,-122"/>
<text text-anchor="middle" x="495" y="-99.8" font-family="Times,serif" font-size="14.00">PrismaModule</text>
</g>
<!-- LanguagesModule -->
<g id="node2" class="node">
<title>LanguagesModule</title>
<polygon fill="#8dd3c7" stroke="black" points="374.19,-187 371.19,-191 350.19,-191 347.19,-187 253.81,-187 253.81,-151 374.19,-151 374.19,-187"/>
<text text-anchor="middle" x="314" y="-164.8" font-family="Times,serif" font-size="14.00">LanguagesModule</text>
</g>
<!-- PrismaModule&#45;&gt;LanguagesModule -->
<g id="edge1" class="edge">
<title>PrismaModule&#45;&gt;LanguagesModule</title>
<path fill="none" stroke="black" d="M495,-122.11C495,-141.34 495,-169 495,-169 495,-169 384.27,-169 384.27,-169"/>
<polygon fill="black" stroke="black" points="384.27,-165.5 374.27,-169 384.27,-172.5 384.27,-165.5"/>
</g>
<!-- LanguagesService  -->
<g id="node3" class="node">
<title>LanguagesService </title>
<polygon fill="#fb8072" stroke="black" points="375.12,-252 252.88,-252 252.88,-216 375.12,-216 375.12,-252"/>
<text text-anchor="middle" x="314" y="-229.8" font-family="Times,serif" font-size="14.00">LanguagesService </text>
</g>
<!-- LanguagesModule&#45;&gt;LanguagesService  -->
<g id="edge2" class="edge">
<title>LanguagesModule&#45;&gt;LanguagesService </title>
<path fill="none" stroke="black" stroke-dasharray="5,2" d="M314,-187.11C314,-187.11 314,-205.99 314,-205.99"/>
<polygon fill="black" stroke="black" points="310.5,-205.99 314,-215.99 317.5,-205.99 310.5,-205.99"/>
</g>
<!-- LanguagesSeederService -->
<g id="node4" class="node">
<title>LanguagesSeederService</title>
<ellipse fill="#fdb462" stroke="black" cx="314" cy="-104" rx="108.19" ry="18"/>
<text text-anchor="middle" x="314" y="-99.8" font-family="Times,serif" font-size="14.00">LanguagesSeederService</text>
</g>
<!-- LanguagesSeederService&#45;&gt;LanguagesModule -->
<g id="edge3" class="edge">
<title>LanguagesSeederService&#45;&gt;LanguagesModule</title>
<path fill="none" stroke="black" d="M314,-122.11C314,-122.11 314,-140.99 314,-140.99"/>
<polygon fill="black" stroke="black" points="310.5,-140.99 314,-150.99 317.5,-140.99 310.5,-140.99"/>
</g>
<!-- LanguagesService -->
<g id="node5" class="node">
<title>LanguagesService</title>
<ellipse fill="#fdb462" stroke="black" cx="106" cy="-104" rx="81.64" ry="18"/>
<text text-anchor="middle" x="106" y="-99.8" font-family="Times,serif" font-size="14.00">LanguagesService</text>
</g>
<!-- LanguagesService&#45;&gt;LanguagesModule -->
<g id="edge4" class="edge">
<title>LanguagesService&#45;&gt;LanguagesModule</title>
<path fill="none" stroke="black" d="M106,-122.11C106,-141.34 106,-169 106,-169 106,-169 243.84,-169 243.84,-169"/>
<polygon fill="black" stroke="black" points="243.84,-172.5 253.84,-169 243.84,-165.5 243.84,-172.5"/>
</g>
</g>
</svg>
